<svg xmlns="http://www.w3.org/2000/svg" xmlns:xlink="http://www.w3.org/1999/xlink" width="500" zoomAndPan="magnify" viewBox="0 0 375 374.999991" height="500" preserveAspectRatio="xMidYMid meet" version="1.0"><defs><g/></defs><rect x="-37.5" width="450" fill="#ffffff" y="-37.499999" height="449.999989" fill-opacity="1"/><rect x="-37.5" width="450" fill="#ffffff" y="-37.499999" height="449.999989" fill-opacity="1"/><g fill="#ffa7e4" fill-opacity="1"><g transform="translate(91.186003, 206.411577)"><g><path d="M 29.5625 -2 C 29.5625 -1.457031 29.367188 -0.988281 28.984375 -0.59375 C 28.597656 -0.195312 28.125 0 27.5625 0 L 23.71875 0 C 23.238281 -0.0195312 22.820312 -0.179688 22.46875 -0.484375 C 22.125 -0.796875 21.90625 -1.179688 21.8125 -1.640625 L 20.421875 -9.796875 L 20.28125 -10.34375 L 20.21875 -10.046875 L 19.09375 -1.765625 C 19.039062 -1.285156 18.828125 -0.867188 18.453125 -0.515625 C 18.078125 -0.171875 17.632812 0 17.125 0 L 12.96875 0 C 12.46875 0 12.03125 -0.171875 11.65625 -0.515625 C 11.28125 -0.867188 11.070312 -1.285156 11.03125 -1.765625 L 9.796875 -10.625 L 9.65625 -9.796875 L 8.203125 -1.640625 C 8.128906 -1.179688 7.914062 -0.796875 7.5625 -0.484375 C 7.21875 -0.179688 6.804688 -0.0195312 6.328125 0 L 2.453125 0 C 1.910156 0 1.445312 -0.195312 1.0625 -0.59375 C 0.675781 -0.988281 0.484375 -1.457031 0.484375 -2 C 0.484375 -2.03125 0.484375 -2.070312 0.484375 -2.125 C 0.484375 -2.1875 0.492188 -2.257812 0.515625 -2.34375 L 0.890625 -4.703125 L 2.171875 -12.28125 L 3.578125 -20.921875 C 3.691406 -21.535156 3.984375 -22.039062 4.453125 -22.4375 C 4.929688 -22.832031 5.488281 -23.03125 6.125 -23.03125 L 11.125 -23.03125 C 11.800781 -23.007812 12.382812 -22.78125 12.875 -22.34375 C 13.363281 -21.914062 13.644531 -21.382812 13.71875 -20.75 L 14.5 -14.125 L 14.5 -14.15625 C 14.5 -14.019531 14.550781 -13.898438 14.65625 -13.796875 C 14.769531 -13.691406 14.890625 -13.640625 15.015625 -13.640625 C 15.304688 -13.640625 15.472656 -13.78125 15.515625 -14.0625 L 16.671875 -20.921875 C 16.765625 -21.535156 17.050781 -22.039062 17.53125 -22.4375 C 18.019531 -22.832031 18.582031 -23.03125 19.21875 -23.03125 L 24.203125 -23.03125 C 24.859375 -23.007812 25.425781 -22.785156 25.90625 -22.359375 C 26.394531 -21.929688 26.695312 -21.410156 26.8125 -20.796875 C 27.269531 -17.679688 27.648438 -15.046875 27.953125 -12.890625 C 28.265625 -10.742188 28.519531 -8.992188 28.71875 -7.640625 C 28.925781 -6.285156 29.085938 -5.226562 29.203125 -4.46875 C 29.316406 -3.707031 29.398438 -3.15625 29.453125 -2.8125 C 29.503906 -2.476562 29.535156 -2.265625 29.546875 -2.171875 C 29.554688 -2.085938 29.5625 -2.03125 29.5625 -2 Z M 29.5625 -2 "/></g></g></g><g fill="#ffa7e4" fill-opacity="1"><g transform="translate(121.228155, 206.411577)"><g><path d="M 22.046875 -2.421875 C 22.140625 -2.003906 22.097656 -1.585938 21.921875 -1.171875 C 21.753906 -0.753906 21.476562 -0.441406 21.09375 -0.234375 C 20.84375 -0.078125 20.550781 0 20.21875 0 L 16.296875 0 C 15.753906 0 15.347656 -0.160156 15.078125 -0.484375 C 14.804688 -0.816406 14.566406 -1.253906 14.359375 -1.796875 L 13.484375 -4.046875 L 9.078125 -4.046875 L 8.234375 -1.796875 C 8.023438 -1.253906 7.785156 -0.820312 7.515625 -0.5 C 7.242188 -0.1875 6.835938 -0.03125 6.296875 -0.03125 L 2.375 -0.03125 C 2.0625 -0.03125 1.8125 -0.078125 1.625 -0.171875 C 1.195312 -0.367188 0.878906 -0.679688 0.671875 -1.109375 C 0.472656 -1.546875 0.429688 -1.992188 0.546875 -2.453125 L 5.75 -21.546875 C 5.800781 -21.816406 5.898438 -22.039062 6.046875 -22.21875 C 6.191406 -22.394531 6.332031 -22.53125 6.46875 -22.625 C 6.78125 -22.875 7.15625 -23 7.59375 -23 L 15.171875 -23 C 15.378906 -23 15.609375 -22.957031 15.859375 -22.875 C 16.109375 -22.800781 16.335938 -22.660156 16.546875 -22.453125 C 16.765625 -22.210938 16.90625 -21.972656 16.96875 -21.734375 C 17.039062 -21.492188 17.09375 -21.289062 17.125 -21.125 Z M 12.65625 -10.71875 C 12.789062 -10.71875 12.894531 -10.773438 12.96875 -10.890625 C 13.050781 -11.003906 13.070312 -11.128906 13.03125 -11.265625 L 12.28125 -13.234375 L 11.671875 -14.734375 C 11.609375 -14.921875 11.476562 -15.015625 11.28125 -15.015625 C 11.09375 -15.015625 10.972656 -14.921875 10.921875 -14.734375 L 10.34375 -13.234375 L 9.59375 -11.265625 C 9.507812 -11.128906 9.515625 -11.003906 9.609375 -10.890625 C 9.710938 -10.773438 9.832031 -10.71875 9.96875 -10.71875 Z M 12.65625 -10.71875 "/></g></g></g><g fill="#ffa7e4" fill-opacity="1"><g transform="translate(143.817535, 206.411577)"><g><path d="M 22.90625 -20.796875 L 16.0625 -11 L 16.0625 -1.640625 C 16.0625 -1.160156 15.863281 -0.765625 15.46875 -0.453125 C 15.070312 -0.148438 14.65625 0 14.21875 0 L 9.53125 0 C 9.09375 0 8.679688 -0.148438 8.296875 -0.453125 C 7.910156 -0.765625 7.71875 -1.160156 7.71875 -1.640625 L 7.71875 -11 L 0.859375 -20.796875 C 0.609375 -20.972656 0.484375 -21.273438 0.484375 -21.703125 C 0.484375 -22.140625 0.632812 -22.488281 0.9375 -22.75 C 1.238281 -23.007812 1.570312 -23.140625 1.9375 -23.140625 L 7.1875 -23.140625 C 7.34375 -23.140625 7.523438 -23.101562 7.734375 -23.03125 C 7.953125 -22.96875 8.128906 -22.820312 8.265625 -22.59375 L 11.875 -17.328125 L 15.6875 -22.59375 C 15.9375 -22.957031 16.234375 -23.140625 16.578125 -23.140625 L 21.8125 -23.140625 C 22.195312 -23.140625 22.53125 -23.007812 22.8125 -22.75 C 23.101562 -22.488281 23.25 -22.140625 23.25 -21.703125 C 23.25 -21.503906 23.21875 -21.320312 23.15625 -21.15625 C 23.09375 -21 23.007812 -20.878906 22.90625 -20.796875 Z M 22.90625 -20.796875 "/></g></g></g><g fill="#ffa7e4" fill-opacity="1"><g transform="translate(167.56238, 206.411577)"><g><path d="M 9.90625 -23.453125 C 11.125 -23.453125 12.296875 -23.226562 13.421875 -22.78125 C 14.546875 -22.34375 15.550781 -21.734375 16.4375 -20.953125 C 17.320312 -20.179688 18.023438 -19.273438 18.546875 -18.234375 C 19.066406 -17.191406 19.328125 -16.070312 19.328125 -14.875 L 19.328125 -8.296875 C 19.328125 -7.054688 19.066406 -5.898438 18.546875 -4.828125 C 18.023438 -3.765625 17.320312 -2.832031 16.4375 -2.03125 C 15.550781 -1.238281 14.546875 -0.617188 13.421875 -0.171875 C 12.296875 0.265625 11.125 0.484375 9.90625 0.484375 C 8.726562 0.484375 7.578125 0.265625 6.453125 -0.171875 C 5.328125 -0.617188 4.316406 -1.238281 3.421875 -2.03125 C 2.523438 -2.832031 1.8125 -3.765625 1.28125 -4.828125 C 0.75 -5.898438 0.484375 -7.054688 0.484375 -8.296875 L 0.484375 -14.875 C 0.484375 -16.070312 0.75 -17.191406 1.28125 -18.234375 C 1.8125 -19.273438 2.523438 -20.179688 3.421875 -20.953125 C 4.316406 -21.734375 5.328125 -22.34375 6.453125 -22.78125 C 7.578125 -23.226562 8.726562 -23.453125 9.90625 -23.453125 Z M 11.84375 -8.578125 L 11.84375 -14.359375 C 11.84375 -14.878906 11.648438 -15.328125 11.265625 -15.703125 C 10.878906 -16.078125 10.425781 -16.265625 9.90625 -16.265625 C 9.363281 -16.265625 8.910156 -16.078125 8.546875 -15.703125 C 8.179688 -15.328125 8 -14.878906 8 -14.359375 L 8 -8.578125 C 8 -8.097656 8.179688 -7.671875 8.546875 -7.296875 C 8.910156 -6.921875 9.363281 -6.734375 9.90625 -6.734375 C 10.425781 -6.734375 10.878906 -6.921875 11.265625 -7.296875 C 11.648438 -7.671875 11.84375 -8.097656 11.84375 -8.578125 Z M 11.84375 -8.578125 "/></g></g></g><g fill="#ffa7e4" fill-opacity="1"><g transform="translate(187.378639, 206.411577)"><g><path d="M 18.921875 -2.453125 C 19.078125 -1.773438 18.957031 -1.210938 18.5625 -0.765625 C 18.164062 -0.316406 17.6875 -0.09375 17.125 -0.09375 L 12.453125 -0.09375 C 11.972656 -0.09375 11.46875 -0.289062 10.9375 -0.6875 C 10.40625 -1.09375 10.0625 -1.625 9.90625 -2.28125 L 9.15625 -5.8125 L 8.921875 -6.984375 C 8.921875 -7.085938 8.863281 -7.140625 8.75 -7.140625 C 8.65625 -7.140625 8.609375 -7.082031 8.609375 -6.96875 L 8.609375 -2.140625 C 8.609375 -1.910156 8.59375 -1.695312 8.5625 -1.5 C 8.53125 -1.3125 8.382812 -1.070312 8.125 -0.78125 C 7.925781 -0.550781 7.691406 -0.378906 7.421875 -0.265625 C 7.148438 -0.148438 6.875 -0.09375 6.59375 -0.09375 L 2.890625 -0.09375 C 2.328125 -0.09375 1.847656 -0.285156 1.453125 -0.671875 C 1.054688 -1.066406 0.859375 -1.535156 0.859375 -2.078125 L 0.859375 -20.484375 C 0.859375 -21.304688 1.054688 -21.941406 1.453125 -22.390625 C 1.847656 -22.835938 2.328125 -23.0625 2.890625 -23.0625 L 13.3125 -23.078125 C 14.375 -23.078125 15.332031 -22.785156 16.1875 -22.203125 C 17.050781 -21.617188 17.738281 -20.789062 18.25 -19.71875 C 18.757812 -18.644531 19.015625 -17.367188 19.015625 -15.890625 C 19.015625 -14.640625 18.828125 -13.535156 18.453125 -12.578125 C 18.078125 -11.628906 17.570312 -10.78125 16.9375 -10.03125 C 17.007812 -9.914062 17.070312 -9.726562 17.125 -9.46875 Z M 11.234375 -15.140625 C 11.234375 -15.617188 11.066406 -16.023438 10.734375 -16.359375 C 10.398438 -16.703125 10 -16.875 9.53125 -16.875 L 8.984375 -16.875 C 8.734375 -16.875 8.609375 -16.75 8.609375 -16.5 L 8.609375 -13.40625 C 8.609375 -13.15625 8.734375 -13.03125 8.984375 -13.03125 L 9.53125 -13.03125 C 10 -13.03125 10.398438 -13.195312 10.734375 -13.53125 C 11.066406 -13.875 11.234375 -14.273438 11.234375 -14.734375 Z M 11.234375 -15.140625 "/></g></g></g><g fill="#ffa7e4" fill-opacity="1"><g transform="translate(207.339335, 206.411577)"><g><path d="M 3 0.03125 C 2.445312 0.03125 1.96875 -0.179688 1.5625 -0.609375 C 1.15625 -1.035156 0.953125 -1.515625 0.953125 -2.046875 L 0.953125 -21.03125 C 0.953125 -21.644531 1.15625 -22.144531 1.5625 -22.53125 C 1.96875 -22.914062 2.445312 -23.109375 3 -23.109375 L 6.59375 -23.109375 C 7.207031 -23.109375 7.707031 -22.914062 8.09375 -22.53125 C 8.476562 -22.144531 8.671875 -21.644531 8.671875 -21.03125 L 8.671875 -2.046875 C 8.671875 -1.515625 8.476562 -1.035156 8.09375 -0.609375 C 7.707031 -0.179688 7.207031 0.03125 6.59375 0.03125 Z M 3 0.03125 "/></g></g></g><g fill="#ffa7e4" fill-opacity="1"><g transform="translate(216.958598, 206.411577)"><g><path d="M 10.109375 -24.15625 C 11.597656 -24.15625 12.851562 -23.988281 13.875 -23.65625 C 14.90625 -23.332031 15.757812 -22.914062 16.4375 -22.40625 C 17.113281 -21.894531 17.644531 -21.347656 18.03125 -20.765625 C 18.414062 -20.191406 18.695312 -19.644531 18.875 -19.125 C 19.0625 -18.601562 19.179688 -18.191406 19.234375 -17.890625 C 19.273438 -17.671875 19.25 -17.488281 19.15625 -17.34375 C 19.0625 -17.195312 18.9375 -17.117188 18.78125 -17.109375 L 11.703125 -16.125 C 11.367188 -16.125 11.144531 -16.285156 11.03125 -16.609375 C 10.894531 -16.992188 10.664062 -17.273438 10.34375 -17.453125 C 10.019531 -17.640625 9.738281 -17.734375 9.5 -17.734375 C 9.195312 -17.734375 8.859375 -17.601562 8.484375 -17.34375 C 8.109375 -17.082031 7.921875 -16.675781 7.921875 -16.125 C 7.921875 -15.65625 8.050781 -15.3125 8.3125 -15.09375 C 8.570312 -14.875 8.875 -14.726562 9.21875 -14.65625 C 9.5625 -14.59375 9.859375 -14.5625 10.109375 -14.5625 C 10.585938 -14.5625 11.210938 -14.554688 11.984375 -14.546875 C 12.753906 -14.535156 13.566406 -14.4375 14.421875 -14.25 C 15.285156 -14.070312 16.097656 -13.738281 16.859375 -13.25 C 17.617188 -12.757812 18.238281 -12.035156 18.71875 -11.078125 C 19.195312 -10.128906 19.4375 -8.875 19.4375 -7.3125 C 19.4375 -5.726562 19.179688 -4.394531 18.671875 -3.3125 C 18.160156 -2.238281 17.492188 -1.382812 16.671875 -0.75 C 15.859375 -0.113281 14.96875 0.34375 14 0.625 C 13.039062 0.90625 12.109375 1.046875 11.203125 1.046875 C 9.398438 1.046875 7.890625 0.863281 6.671875 0.5 C 5.460938 0.144531 4.46875 -0.335938 3.6875 -0.953125 C 2.90625 -1.566406 2.28125 -2.257812 1.8125 -3.03125 C 1.351562 -3.800781 0.976562 -4.601562 0.6875 -5.4375 C 0.4375 -5.875 0.535156 -6.140625 0.984375 -6.234375 L 8.71875 -7.171875 C 8.9375 -7.203125 9.085938 -7.1875 9.171875 -7.125 C 9.253906 -7.070312 9.316406 -6.988281 9.359375 -6.875 C 9.515625 -6.300781 9.75 -5.941406 10.0625 -5.796875 C 10.382812 -5.648438 10.660156 -5.578125 10.890625 -5.578125 C 11.296875 -5.578125 11.660156 -5.722656 11.984375 -6.015625 C 12.316406 -6.316406 12.484375 -6.703125 12.484375 -7.171875 C 12.484375 -7.648438 12.3125 -8.023438 11.96875 -8.296875 C 11.632812 -8.566406 11.226562 -8.703125 10.75 -8.703125 L 9.015625 -8.703125 C 7.398438 -8.703125 5.945312 -9.007812 4.65625 -9.625 C 3.363281 -10.238281 2.34375 -11.132812 1.59375 -12.3125 C 0.851562 -13.5 0.484375 -14.929688 0.484375 -16.609375 C 0.484375 -17.960938 0.703125 -19.085938 1.140625 -19.984375 C 1.585938 -20.878906 2.164062 -21.597656 2.875 -22.140625 C 3.59375 -22.691406 4.359375 -23.109375 5.171875 -23.390625 C 5.984375 -23.679688 6.753906 -23.875 7.484375 -23.96875 C 8.210938 -24.070312 8.816406 -24.128906 9.296875 -24.140625 C 9.785156 -24.148438 10.054688 -24.15625 10.109375 -24.15625 Z M 10.109375 -24.15625 "/></g></g></g><g fill="#ffa7e4" fill-opacity="1"><g transform="translate(236.890409, 206.411577)"><g><path d="M 19.359375 -23.109375 C 19.910156 -23.109375 20.382812 -22.910156 20.78125 -22.515625 C 21.175781 -22.117188 21.375 -21.644531 21.375 -21.09375 L 21.375 -17.125 C 21.375 -16.59375 21.175781 -16.125 20.78125 -15.71875 C 20.382812 -15.3125 19.910156 -15.109375 19.359375 -15.109375 L 15.40625 -15.109375 C 15.25 -15.109375 15.171875 -15.039062 15.171875 -14.90625 L 15.171875 -1.96875 C 15.171875 -1.425781 14.972656 -0.953125 14.578125 -0.546875 C 14.179688 -0.140625 13.703125 0.0625 13.140625 0.0625 L 9.21875 0.0625 C 8.632812 0.0625 8.144531 -0.140625 7.75 -0.546875 C 7.363281 -0.953125 7.171875 -1.425781 7.171875 -1.96875 L 7.171875 -14.90625 C 7.171875 -15.039062 7.101562 -15.109375 6.96875 -15.109375 L 2.96875 -15.109375 C 2.4375 -15.109375 1.96875 -15.3125 1.5625 -15.71875 C 1.15625 -16.125 0.953125 -16.59375 0.953125 -17.125 L 0.953125 -21.09375 C 0.953125 -21.644531 1.15625 -22.117188 1.5625 -22.515625 C 1.96875 -22.910156 2.4375 -23.109375 2.96875 -23.109375 Z M 19.359375 -23.109375 "/></g></g></g><g fill="#ffa7e4" fill-opacity="1"><g transform="translate(259.219814, 206.411577)"><g><path d="M 22.046875 -2.421875 C 22.140625 -2.003906 22.097656 -1.585938 21.921875 -1.171875 C 21.753906 -0.753906 21.476562 -0.441406 21.09375 -0.234375 C 20.84375 -0.078125 20.550781 0 20.21875 0 L 16.296875 0 C 15.753906 0 15.347656 -0.160156 15.078125 -0.484375 C 14.804688 -0.816406 14.566406 -1.253906 14.359375 -1.796875 L 13.484375 -4.046875 L 9.078125 -4.046875 L 8.234375 -1.796875 C 8.023438 -1.253906 7.785156 -0.820312 7.515625 -0.5 C 7.242188 -0.1875 6.835938 -0.03125 6.296875 -0.03125 L 2.375 -0.03125 C 2.0625 -0.03125 1.8125 -0.078125 1.625 -0.171875 C 1.195312 -0.367188 0.878906 -0.679688 0.671875 -1.109375 C 0.472656 -1.546875 0.429688 -1.992188 0.546875 -2.453125 L 5.75 -21.546875 C 5.800781 -21.816406 5.898438 -22.039062 6.046875 -22.21875 C 6.191406 -22.394531 6.332031 -22.53125 6.46875 -22.625 C 6.78125 -22.875 7.15625 -23 7.59375 -23 L 15.171875 -23 C 15.378906 -23 15.609375 -22.957031 15.859375 -22.875 C 16.109375 -22.800781 16.335938 -22.660156 16.546875 -22.453125 C 16.765625 -22.210938 16.90625 -21.972656 16.96875 -21.734375 C 17.039062 -21.492188 17.09375 -21.289062 17.125 -21.125 Z M 12.65625 -10.71875 C 12.789062 -10.71875 12.894531 -10.773438 12.96875 -10.890625 C 13.050781 -11.003906 13.070312 -11.128906 13.03125 -11.265625 L 12.28125 -13.234375 L 11.671875 -14.734375 C 11.609375 -14.921875 11.476562 -15.015625 11.28125 -15.015625 C 11.09375 -15.015625 10.972656 -14.921875 10.921875 -14.734375 L 10.34375 -13.234375 L 9.59375 -11.265625 C 9.507812 -11.128906 9.515625 -11.003906 9.609375 -10.890625 C 9.710938 -10.773438 9.832031 -10.71875 9.96875 -10.71875 Z M 12.65625 -10.71875 "/></g></g></g><path stroke-linecap="butt" transform="matrix(0.75, 0, 0, 0.75, 37.500002, 183.189612)" fill="none" stroke-linejoin="miter" d="M 112.322903 27.335723 C 112.322903 28.059681 112.062487 28.684681 111.546862 29.210723 C 111.036445 29.736765 110.406237 30.00239 109.666654 30.00239 L 104.541654 30.00239 C 103.895821 29.976348 103.338529 29.757598 102.874988 29.351348 C 102.416654 28.934681 102.124988 28.424265 101.989571 27.809681 L 100.145821 16.934682 L 99.953113 16.210724 L 99.874988 16.596141 L 98.36978 27.648223 C 98.296863 28.294056 98.005196 28.851348 97.505196 29.31489 C 97.005196 29.773223 96.421863 30.00239 95.755197 30.00239 L 90.203114 30.00239 C 89.541656 30.00239 88.958322 29.773223 88.453114 29.31489 C 87.953114 28.851348 87.677072 28.294056 87.630197 27.648223 L 85.973948 15.825308 L 85.776031 16.934682 L 83.843739 27.809681 C 83.744781 28.424265 83.463531 28.934681 82.999989 29.351348 C 82.536448 29.757598 81.984365 29.976348 81.34374 30.00239 L 76.182282 30.00239 C 75.458323 30.00239 74.838532 29.736765 74.328115 29.210723 C 73.817699 28.684681 73.56249 28.059681 73.56249 27.335723 C 73.56249 27.288848 73.56249 27.226348 73.56249 27.148223 C 73.56249 27.075306 73.578115 26.981556 73.604157 26.87739 L 74.098949 23.715932 L 75.791657 13.622183 L 77.682282 2.106559 C 77.833323 1.283642 78.223948 0.601351 78.848948 0.075309 C 79.484365 -0.450733 80.223948 -0.711149 81.072906 -0.711149 L 87.739572 -0.711149 C 88.635406 -0.679899 89.411447 -0.377816 90.062489 0.200309 C 90.723947 0.778434 91.104155 1.486767 91.21353 2.335725 L 92.24478 11.158641 L 92.24478 11.122183 C 92.24478 11.304475 92.317697 11.465933 92.453114 11.611766 C 92.598947 11.747183 92.760405 11.814891 92.942697 11.814891 C 93.322905 11.814891 93.546863 11.622183 93.598947 11.231558 L 95.135405 2.106559 C 95.265613 1.283642 95.65103 0.601351 96.291655 0.075309 C 96.937488 -0.450733 97.68228 -0.711149 98.531238 -0.711149 L 105.192696 -0.711149 C 106.067696 -0.679899 106.828112 -0.383024 107.468737 0.179476 C 108.11457 0.747184 108.510404 1.439892 108.661445 2.2576 C 109.276029 6.419058 109.786445 9.929475 110.192695 12.794058 C 110.609362 15.658641 110.947903 18.002391 111.218737 19.814891 C 111.48957 21.616974 111.703112 23.028432 111.859362 24.044057 C 112.015612 25.059682 112.124987 25.794057 112.187487 26.247182 C 112.249987 26.68989 112.291653 26.976348 112.30207 27.090931 C 112.312487 27.205515 112.322903 27.288848 112.322903 27.335723 Z M 142.359359 26.762807 C 142.489567 27.330515 142.437484 27.887806 142.208317 28.43989 C 141.973942 28.991973 141.604151 29.40864 141.088526 29.68989 C 140.755192 29.898223 140.369776 30.00239 139.932276 30.00239 L 134.692693 30.00239 C 133.968735 30.00239 133.432276 29.78364 133.072901 29.351348 C 132.718735 28.913848 132.395818 28.330515 132.114568 27.611765 L 130.958318 24.611765 L 125.057277 24.611765 L 123.942694 27.611765 C 123.656236 28.330515 123.338527 28.903431 122.979152 29.330515 C 122.624986 29.75239 122.083319 29.960723 121.364569 29.960723 L 116.124986 29.960723 C 115.70832 29.960723 115.374986 29.898223 115.11457 29.762806 C 114.55207 29.507598 114.135403 29.090931 113.86457 28.512806 C 113.593737 27.934681 113.541653 27.340931 113.697903 26.726348 L 120.630194 1.252392 C 120.703111 0.893017 120.838528 0.601351 121.031236 0.366976 C 121.229153 0.137809 121.416652 -0.0444826 121.598944 -0.169483 C 122.005194 -0.497608 122.505194 -0.664274 123.093736 -0.664274 L 133.187485 -0.664274 C 133.468735 -0.664274 133.776026 -0.617399 134.10936 -0.513233 C 134.447901 -0.414274 134.760401 -0.221566 135.041651 0.059684 C 135.322901 0.372184 135.505193 0.689892 135.593734 1.007601 C 135.687484 1.330517 135.760401 1.606559 135.812484 1.835726 Z M 129.838527 15.700308 C 130.020818 15.700308 130.161443 15.627391 130.260402 15.476349 C 130.35936 15.320099 130.385402 15.153433 130.338527 14.976349 L 129.338527 12.35135 L 128.531235 10.35135 C 128.447902 10.090933 128.281235 9.965933 128.020819 9.965933 C 127.770819 9.965933 127.604152 10.090933 127.526027 10.35135 L 126.755194 12.35135 L 125.755194 14.976349 C 125.651027 15.153433 125.656235 15.320099 125.781235 15.476349 C 125.916652 15.627391 126.072902 15.700308 126.255194 15.700308 Z M 173.635398 2.2576 L 164.499982 15.314891 L 164.499982 27.809681 C 164.499982 28.450306 164.239565 28.976348 163.708315 29.387806 C 163.182274 29.794056 162.624982 30.00239 162.03644 30.00239 L 155.802066 30.00239 C 155.203108 30.00239 154.651024 29.794056 154.135399 29.387806 C 153.624983 28.976348 153.374983 28.450306 153.374983 27.809681 L 153.374983 15.314891 L 144.239567 2.2576 C 143.906234 2.028434 143.739567 1.627392 143.739567 1.064892 C 143.739567 0.476351 143.937484 0.00760071 144.333317 -0.336149 C 144.734359 -0.690316 145.177067 -0.862191 145.661442 -0.862191 L 152.677066 -0.862191 C 152.8854 -0.862191 153.130191 -0.815316 153.411441 -0.721566 C 153.692691 -0.633024 153.921858 -0.435108 154.098941 -0.127816 L 158.911441 6.877392 L 163.999982 -0.127816 C 164.333315 -0.617399 164.734357 -0.862191 165.197898 -0.862191 L 172.166648 -0.862191 C 172.682273 -0.862191 173.130189 -0.690316 173.510398 -0.336149 C 173.901023 0.00760071 174.093731 0.476351 174.093731 1.064892 C 174.093731 1.320101 174.052064 1.559684 173.963523 1.778434 C 173.874981 1.997184 173.765606 2.158642 173.635398 2.2576 Z M 187.958313 -1.289274 C 189.578104 -1.289274 191.135396 -0.992399 192.635396 -0.403858 C 194.140604 0.184684 195.479146 1.002392 196.661437 2.044059 C 197.843729 3.085725 198.781229 4.299267 199.473937 5.6951 C 200.166645 7.080517 200.515603 8.5701 200.515603 10.158641 L 200.515603 18.939891 C 200.515603 20.585724 200.166645 22.122182 199.473937 23.549265 C 198.781229 24.97114 197.843729 26.215932 196.661437 27.28364 C 195.479146 28.34614 194.140604 29.179473 192.635396 29.773223 C 191.135396 30.361765 189.578104 30.658639 187.958313 30.658639 C 186.390605 30.658639 184.854147 30.361765 183.348938 29.773223 C 181.848938 29.179473 180.49998 28.34614 179.302064 27.28364 C 178.114564 26.215932 177.161439 24.97114 176.453106 23.549265 C 175.749981 22.122182 175.401022 20.585724 175.401022 18.939891 L 175.401022 10.158641 C 175.401022 8.5701 175.749981 7.080517 176.453106 5.6951 C 177.161439 4.299267 178.114564 3.085725 179.302064 2.044059 C 180.49998 1.002392 181.848938 0.184684 183.348938 -0.403858 C 184.854147 -0.992399 186.390605 -1.289274 187.958313 -1.289274 Z M 190.536438 18.554474 L 190.536438 10.846141 C 190.536438 10.158641 190.276021 9.564891 189.765604 9.059683 C 189.255188 8.559683 188.656229 8.309683 187.958313 8.309683 C 187.234355 8.309683 186.630188 8.559683 186.140605 9.059683 C 185.661438 9.564891 185.416646 10.158641 185.416646 10.846141 L 185.416646 18.554474 C 185.416646 19.200307 185.661438 19.773224 186.140605 20.273224 C 186.630188 20.773224 187.234355 21.028432 187.958313 21.028432 C 188.656229 21.028432 189.255188 20.773224 189.765604 20.273224 C 190.276021 19.773224 190.536438 19.200307 190.536438 18.554474 Z M 226.401018 26.726348 C 226.609351 27.622181 226.447893 28.37739 225.921851 28.981556 C 225.395809 29.585723 224.760393 29.887806 224.010393 29.887806 L 217.765602 29.887806 C 217.124977 29.887806 216.453102 29.616973 215.744769 29.080515 C 215.041644 28.538848 214.588519 27.830515 214.380185 26.950306 L 213.374977 22.257599 L 213.072894 20.679474 C 213.072894 20.544057 212.994769 20.481557 212.838519 20.481557 C 212.713519 20.481557 212.651019 20.559682 212.651019 20.715932 L 212.651019 27.148223 C 212.651019 27.455515 212.624977 27.736765 212.583311 27.997181 C 212.546852 28.25239 212.348936 28.575306 211.989561 28.955515 C 211.734352 29.268015 211.421852 29.50239 211.057269 29.663848 C 210.703102 29.809681 210.333311 29.887806 209.947894 29.887806 L 205.020811 29.887806 C 204.27602 29.887806 203.635395 29.622181 203.109353 29.09614 C 202.583312 28.570098 202.317687 27.945098 202.317687 27.226348 L 202.317687 2.684684 C 202.317687 1.580517 202.583312 0.731559 203.109353 0.143017 C 203.635395 -0.450733 204.27602 -0.752816 205.020811 -0.752816 L 218.921852 -0.789274 C 220.338518 -0.789274 221.619768 -0.398649 222.760393 0.387809 C 223.901018 1.169059 224.812476 2.278434 225.489559 3.710725 C 226.171851 5.1326 226.515601 6.830517 226.515601 8.804475 C 226.515601 10.47635 226.265601 11.9451 225.760393 13.215933 C 225.260393 14.491974 224.583309 15.627391 223.73956 16.632599 C 223.843726 16.783641 223.937476 17.028432 224.010393 17.366974 Z M 216.14581 9.814891 C 216.14581 9.169058 215.921852 8.622183 215.468727 8.174267 C 215.026019 7.72635 214.494769 7.497183 213.880185 7.497183 L 213.145811 7.497183 C 212.812477 7.497183 212.651019 7.66385 212.651019 7.997183 L 212.651019 12.116975 C 212.651019 12.455516 212.812477 12.627391 213.145811 12.627391 L 213.880185 12.627391 C 214.494769 12.627391 215.026019 12.398225 215.468727 11.950308 C 215.921852 11.497183 216.14581 10.965933 216.14581 10.35135 Z M 231.786434 30.038848 C 231.036434 30.038848 230.395809 29.757598 229.854142 29.18989 C 229.317684 28.62739 229.046851 27.981556 229.046851 27.262806 L 229.046851 1.950309 C 229.046851 1.127392 229.317684 0.460726 229.854142 -0.0548993 C 230.395809 -0.570524 231.036434 -0.825733 231.786434 -0.825733 L 236.562475 -0.825733 C 237.385392 -0.825733 238.052058 -0.570524 238.567683 -0.0548993 C 239.083308 0.460726 239.338516 1.127392 239.338516 1.950309 L 239.338516 27.262806 C 239.338516 27.981556 239.083308 28.62739 238.567683 29.18989 C 238.052058 29.757598 237.385392 30.038848 236.562475 30.038848 Z M 254.093723 -2.211149 C 256.067681 -2.211149 257.739556 -1.987191 259.114556 -1.549691 C 260.489556 -1.117399 261.624973 -0.560108 262.520806 0.122184 C 263.421847 0.799267 264.130181 1.523226 264.645806 2.299267 C 265.161431 3.0701 265.541639 3.804475 265.786431 4.497184 C 266.031222 5.189892 266.187472 5.741975 266.265597 6.153433 C 266.312472 6.434683 266.276014 6.674267 266.140597 6.866975 C 266.015597 7.054475 265.848931 7.16385 265.645806 7.189892 L 256.208306 8.497183 C 255.770806 8.497183 255.473932 8.278433 255.32289 7.846142 C 255.140598 7.330517 254.833307 6.955517 254.395807 6.710725 C 253.958307 6.465933 253.588515 6.340933 253.281223 6.340933 C 252.869765 6.340933 252.411432 6.518017 251.911432 6.866975 C 251.406224 7.215933 251.156224 7.7576 251.156224 8.497183 C 251.156224 9.116975 251.328099 9.575308 251.677057 9.872183 C 252.026015 10.16385 252.432265 10.356558 252.890598 10.450308 C 253.35414 10.53885 253.755182 10.585725 254.093723 10.585725 C 254.734348 10.585725 255.567682 10.590933 256.593723 10.60135 C 257.624973 10.616975 258.708306 10.741975 259.848931 10.986766 C 260.989556 11.231558 262.067681 11.679475 263.083306 12.335725 C 264.098931 12.986766 264.927056 13.950308 265.567681 15.221141 C 266.213514 16.497182 266.53643 18.174266 266.53643 20.25239 C 266.53643 22.361765 266.197889 24.132598 265.510389 25.570098 C 264.833306 27.007598 263.947889 28.148223 262.848931 29.00239 C 261.760389 29.851348 260.572889 30.455514 259.286431 30.825306 C 258.005181 31.200306 256.76039 31.382598 255.552057 31.382598 C 253.13539 31.382598 251.119765 31.143014 249.499974 30.669056 C 247.885391 30.195098 246.552057 29.549265 245.515599 28.731556 C 244.473933 27.90864 243.645808 26.981556 243.031224 25.955515 C 242.416641 24.924265 241.911433 23.861765 241.526016 22.757599 C 241.192683 22.169057 241.322891 21.804474 241.911433 21.674265 L 252.239557 20.445099 C 252.520807 20.393015 252.718723 20.40864 252.833307 20.491974 C 252.953098 20.56489 253.036432 20.679474 253.083307 20.830515 C 253.29164 21.601349 253.60414 22.080515 254.026015 22.278432 C 254.453098 22.465932 254.817682 22.559682 255.124973 22.559682 C 255.66664 22.559682 256.151015 22.361765 256.583306 21.965932 C 257.026015 21.56489 257.244765 21.059682 257.244765 20.445099 C 257.244765 19.804474 257.015598 19.304474 256.567681 18.945099 C 256.119765 18.585724 255.578098 18.403432 254.937473 18.403432 L 252.624973 18.403432 C 250.468724 18.403432 248.526016 17.991974 246.802057 17.169057 C 245.083307 16.346141 243.729141 15.148224 242.739558 13.564891 C 241.755183 11.986766 241.260391 10.080516 241.260391 7.846142 C 241.260391 6.049267 241.557266 4.549267 242.145808 3.361767 C 242.734349 2.163851 243.505183 1.200309 244.447891 0.471142 C 245.401016 -0.263233 246.421849 -0.820524 247.499974 -1.200733 C 248.578099 -1.591357 249.60414 -1.846566 250.583307 -1.971566 C 251.562474 -2.106982 252.369765 -2.179899 253.01039 -2.190316 C 253.651015 -2.200732 254.01039 -2.211149 254.093723 -2.211149 Z M 292.989553 -0.825733 C 293.739553 -0.825733 294.37497 -0.560108 294.901011 -0.034066 C 295.427053 0.491976 295.692678 1.127392 295.692678 1.872184 L 295.692678 7.153433 C 295.692678 7.872183 295.427053 8.502392 294.901011 9.044058 C 294.37497 9.580516 293.739553 9.85135 292.989553 9.85135 L 287.713512 9.85135 C 287.505178 9.85135 287.401012 9.939891 287.401012 10.111766 L 287.401012 27.37739 C 287.401012 28.09614 287.140595 28.726348 286.614554 29.268015 C 286.088512 29.804473 285.453095 30.075306 284.713512 30.075306 L 279.473929 30.075306 C 278.703096 30.075306 278.052054 29.804473 277.526013 29.268015 C 276.999971 28.726348 276.734346 28.09614 276.734346 27.37739 L 276.734346 10.111766 C 276.734346 9.939891 276.645805 9.85135 276.463513 9.85135 L 271.151013 9.85135 C 270.427055 9.85135 269.796847 9.580516 269.25518 9.044058 C 268.718722 8.502392 268.447889 7.872183 268.447889 7.153433 L 268.447889 1.872184 C 268.447889 1.127392 268.718722 0.491976 269.25518 -0.034066 C 269.796847 -0.560108 270.427055 -0.825733 271.151013 -0.825733 Z M 326.348925 26.762807 C 326.479133 27.330515 326.42705 27.887806 326.197883 28.43989 C 325.963508 28.991973 325.593717 29.40864 325.078092 29.68989 C 324.744758 29.898223 324.359342 30.00239 323.921842 30.00239 L 318.682259 30.00239 C 317.958301 30.00239 317.421842 29.78364 317.062467 29.351348 C 316.703092 28.913848 316.385384 28.330515 316.104134 27.611765 L 314.947884 24.611765 L 309.046843 24.611765 L 307.927052 27.611765 C 307.645802 28.330515 307.328093 28.903431 306.968718 29.330515 C 306.614552 29.75239 306.072885 29.960723 305.348927 29.960723 L 300.114552 29.960723 C 299.697886 29.960723 299.364552 29.898223 299.104136 29.762806 C 298.541636 29.507598 298.124969 29.090931 297.854136 28.512806 C 297.583303 27.934681 297.526011 27.340931 297.687469 26.726348 L 304.61976 1.252392 C 304.692677 0.893017 304.828094 0.601351 305.020802 0.366976 C 305.218718 0.137809 305.406218 -0.0444826 305.58851 -0.169483 C 305.99476 -0.497608 306.49476 -0.664274 307.083302 -0.664274 L 317.177051 -0.664274 C 317.458301 -0.664274 317.765592 -0.617399 318.098926 -0.513233 C 318.437467 -0.414274 318.744759 -0.221566 319.031217 0.059684 C 319.312467 0.372184 319.494759 0.689892 319.5833 1.007601 C 319.67705 1.330517 319.749967 1.606559 319.80205 1.835726 Z M 313.828093 15.700308 C 314.010384 15.700308 314.151009 15.627391 314.249968 15.476349 C 314.348926 15.320099 314.374968 15.153433 314.328093 14.976349 L 313.328093 12.35135 L 312.520801 10.35135 C 312.437468 10.090933 312.270801 9.965933 312.010385 9.965933 C 311.760385 9.965933 311.593718 10.090933 311.510385 10.35135 L 310.739551 12.35135 L 309.74476 14.976349 C 309.635385 15.153433 309.645801 15.320099 309.770801 15.476349 C 309.906218 15.627391 310.062468 15.700308 310.24476 15.700308 Z M 313.828093 15.700308 " stroke="#ff66c4" stroke-width="0.626176" stroke-opacity="1" stroke-miterlimit="4"/><g fill="#5ce1e6" fill-opacity="1"><g transform="translate(48.855348, 178.459558)"><g><path d="M 46.703125 -20.984375 C 46.703125 -17.828125 46.109375 -14.878906 44.921875 -12.140625 C 43.742188 -9.410156 42.113281 -7.003906 40.03125 -4.921875 C 37.957031 -2.847656 35.539062 -1.234375 32.78125 -0.078125 C 30.019531 1.078125 27.085938 1.65625 23.984375 1.65625 C 20.828125 1.65625 17.878906 1.078125 15.140625 -0.078125 C 12.410156 -1.234375 10.003906 -2.847656 7.921875 -4.921875 C 5.847656 -7.003906 4.234375 -9.410156 3.078125 -12.140625 C 1.921875 -14.878906 1.34375 -17.828125 1.34375 -20.984375 L 1.34375 -31.3125 C 1.34375 -32.101562 1.617188 -32.773438 2.171875 -33.328125 C 2.722656 -33.878906 3.394531 -34.15625 4.1875 -34.15625 L 19.953125 -34.15625 C 20.742188 -34.15625 21.414062 -33.878906 21.96875 -33.328125 C 22.519531 -32.773438 22.796875 -32.101562 22.796875 -31.3125 L 22.796875 -23.515625 C 22.898438 -22.566406 23.398438 -22.09375 24.296875 -22.09375 C 24.710938 -22.09375 25.078125 -22.234375 25.390625 -22.515625 C 25.710938 -22.804688 25.875 -23.191406 25.875 -23.671875 L 25.875 -57.984375 C 25.875 -59.347656 26.359375 -60.515625 27.328125 -61.484375 C 28.304688 -62.460938 29.453125 -62.953125 30.765625 -62.953125 L 41.8125 -62.953125 C 43.125 -62.953125 44.265625 -62.460938 45.234375 -61.484375 C 46.210938 -60.515625 46.703125 -59.347656 46.703125 -57.984375 Z M 46.703125 -20.984375 "/></g></g></g><g fill="#5ce1e6" fill-opacity="1"><g transform="translate(96.899163, 178.459558)"><g><path d="M 27.0625 -64.0625 C 30.375 -64.0625 33.566406 -63.457031 36.640625 -62.25 C 39.722656 -61.039062 42.472656 -59.367188 44.890625 -57.234375 C 47.304688 -55.109375 49.222656 -52.625 50.640625 -49.78125 C 52.066406 -46.9375 52.78125 -43.882812 52.78125 -40.625 L 52.78125 -22.640625 C 52.78125 -19.273438 52.066406 -16.128906 50.640625 -13.203125 C 49.222656 -10.285156 47.304688 -7.734375 44.890625 -5.546875 C 42.472656 -3.367188 39.722656 -1.675781 36.640625 -0.46875 C 33.566406 0.738281 30.375 1.34375 27.0625 1.34375 C 23.851562 1.34375 20.707031 0.738281 17.625 -0.46875 C 14.550781 -1.675781 11.789062 -3.367188 9.34375 -5.546875 C 6.90625 -7.734375 4.960938 -10.285156 3.515625 -13.203125 C 2.066406 -16.128906 1.34375 -19.273438 1.34375 -22.640625 L 1.34375 -40.625 C 1.34375 -43.882812 2.066406 -46.9375 3.515625 -49.78125 C 4.960938 -52.625 6.90625 -55.109375 9.34375 -57.234375 C 11.789062 -59.367188 14.550781 -61.039062 17.625 -62.25 C 20.707031 -63.457031 23.851562 -64.0625 27.0625 -64.0625 Z M 32.34375 -23.4375 L 32.34375 -39.203125 C 32.34375 -40.628906 31.816406 -41.851562 30.765625 -42.875 C 29.710938 -43.90625 28.476562 -44.421875 27.0625 -44.421875 C 25.582031 -44.421875 24.34375 -43.90625 23.34375 -42.875 C 22.351562 -41.851562 21.859375 -40.628906 21.859375 -39.203125 L 21.859375 -23.4375 C 21.859375 -22.113281 22.351562 -20.9375 23.34375 -19.90625 C 24.34375 -18.882812 25.582031 -18.375 27.0625 -18.375 C 28.476562 -18.375 29.710938 -18.882812 30.765625 -19.90625 C 31.816406 -20.9375 32.34375 -22.113281 32.34375 -23.4375 Z M 32.34375 -23.4375 "/></g></g></g><g fill="#5ce1e6" fill-opacity="1"><g transform="translate(151.017488, 178.459558)"><g><path d="M 60.1875 -6.625 C 60.457031 -5.46875 60.351562 -4.320312 59.875 -3.1875 C 59.40625 -2.0625 58.644531 -1.207031 57.59375 -0.625 C 56.90625 -0.207031 56.113281 0 55.21875 0 L 44.5 0 C 43.019531 0 41.910156 -0.445312 41.171875 -1.34375 C 40.441406 -2.238281 39.785156 -3.421875 39.203125 -4.890625 L 36.84375 -11.046875 L 24.765625 -11.046875 L 22.484375 -4.890625 C 21.898438 -3.421875 21.238281 -2.25 20.5 -1.375 C 19.769531 -0.507812 18.671875 -0.078125 17.203125 -0.078125 L 6.46875 -0.078125 C 5.625 -0.078125 4.941406 -0.207031 4.421875 -0.46875 C 3.265625 -1 2.410156 -1.851562 1.859375 -3.03125 C 1.304688 -4.21875 1.1875 -5.441406 1.5 -6.703125 L 15.703125 -58.859375 C 15.859375 -59.585938 16.132812 -60.1875 16.53125 -60.65625 C 16.925781 -61.132812 17.304688 -61.503906 17.671875 -61.765625 C 18.515625 -62.453125 19.539062 -62.796875 20.75 -62.796875 L 41.421875 -62.796875 C 41.992188 -62.796875 42.625 -62.691406 43.3125 -62.484375 C 44 -62.273438 44.628906 -61.878906 45.203125 -61.296875 C 45.785156 -60.660156 46.164062 -60.015625 46.34375 -59.359375 C 46.53125 -58.703125 46.675781 -58.140625 46.78125 -57.671875 Z M 34.546875 -29.265625 C 34.921875 -29.265625 35.210938 -29.421875 35.421875 -29.734375 C 35.628906 -30.054688 35.679688 -30.398438 35.578125 -30.765625 L 33.53125 -36.125 L 31.875 -40.234375 C 31.71875 -40.753906 31.375 -41.015625 30.84375 -41.015625 C 30.320312 -41.015625 29.984375 -40.753906 29.828125 -40.234375 L 28.25 -36.125 L 26.1875 -30.765625 C 25.976562 -30.398438 26.003906 -30.054688 26.265625 -29.734375 C 26.535156 -29.421875 26.851562 -29.265625 27.21875 -29.265625 Z M 34.546875 -29.265625 "/></g></g></g><g fill="#5ce1e6" fill-opacity="1"><g transform="translate(212.709222, 178.459558)"><g><path d="M 33.453125 -25.015625 L 51.4375 -25.015625 C 51.695312 -25.015625 51.945312 -24.894531 52.1875 -24.65625 C 52.425781 -24.414062 52.546875 -24.164062 52.546875 -23.90625 L 52.546875 -22.953125 C 52.546875 -19.585938 51.832031 -16.457031 50.40625 -13.5625 C 48.988281 -10.675781 47.082031 -8.140625 44.6875 -5.953125 C 42.300781 -3.773438 39.582031 -2.078125 36.53125 -0.859375 C 33.476562 0.347656 30.296875 0.953125 26.984375 0.953125 C 23.773438 0.953125 20.628906 0.347656 17.546875 -0.859375 C 14.472656 -2.078125 11.726562 -3.773438 9.3125 -5.953125 C 6.894531 -8.140625 4.960938 -10.675781 3.515625 -13.5625 C 2.066406 -16.457031 1.34375 -19.585938 1.34375 -22.953125 L 1.34375 -40.78125 C 1.34375 -44.039062 2.066406 -47.078125 3.515625 -49.890625 C 4.960938 -52.710938 6.894531 -55.1875 9.3125 -57.3125 C 11.726562 -59.445312 14.472656 -61.117188 17.546875 -62.328125 C 20.628906 -63.535156 23.773438 -64.140625 26.984375 -64.140625 C 30.296875 -64.140625 33.476562 -63.535156 36.53125 -62.328125 C 39.582031 -61.117188 42.300781 -59.445312 44.6875 -57.3125 C 47.082031 -55.1875 48.988281 -52.710938 50.40625 -49.890625 C 51.832031 -47.078125 52.546875 -44.039062 52.546875 -40.78125 L 52.546875 -39.359375 C 52.546875 -39.046875 52.425781 -38.769531 52.1875 -38.53125 C 51.945312 -38.300781 51.695312 -38.1875 51.4375 -38.1875 L 33.453125 -38.1875 C 33.078125 -38.1875 32.769531 -38.316406 32.53125 -38.578125 C 32.300781 -38.835938 32.1875 -39.125 32.1875 -39.4375 L 32.1875 -39.84375 C 32.1875 -40.570312 31.972656 -41.304688 31.546875 -42.046875 C 31.128906 -42.785156 30.632812 -43.335938 30.0625 -43.703125 C 28.632812 -44.546875 27.289062 -44.820312 26.03125 -44.53125 C 24.769531 -44.238281 23.742188 -43.617188 22.953125 -42.671875 C 22.171875 -41.734375 21.78125 -40.628906 21.78125 -39.359375 L 21.78125 -23.75 C 21.78125 -22.4375 22.273438 -21.265625 23.265625 -20.234375 C 24.265625 -19.210938 25.503906 -18.703125 26.984375 -18.703125 C 28.347656 -18.703125 29.554688 -19.210938 30.609375 -20.234375 C 31.660156 -21.265625 32.1875 -22.4375 32.1875 -23.75 C 32.1875 -24.59375 32.609375 -25.015625 33.453125 -25.015625 Z M 33.453125 -25.015625 "/></g></g></g><g fill="#5ce1e6" fill-opacity="1"><g transform="translate(266.590872, 178.459558)"><g><path d="M 27.0625 -64.0625 C 30.375 -64.0625 33.566406 -63.457031 36.640625 -62.25 C 39.722656 -61.039062 42.472656 -59.367188 44.890625 -57.234375 C 47.304688 -55.109375 49.222656 -52.625 50.640625 -49.78125 C 52.066406 -46.9375 52.78125 -43.882812 52.78125 -40.625 L 52.78125 -22.640625 C 52.78125 -19.273438 52.066406 -16.128906 50.640625 -13.203125 C 49.222656 -10.285156 47.304688 -7.734375 44.890625 -5.546875 C 42.472656 -3.367188 39.722656 -1.675781 36.640625 -0.46875 C 33.566406 0.738281 30.375 1.34375 27.0625 1.34375 C 23.851562 1.34375 20.707031 0.738281 17.625 -0.46875 C 14.550781 -1.675781 11.789062 -3.367188 9.34375 -5.546875 C 6.90625 -7.734375 4.960938 -10.285156 3.515625 -13.203125 C 2.066406 -16.128906 1.34375 -19.273438 1.34375 -22.640625 L 1.34375 -40.625 C 1.34375 -43.882812 2.066406 -46.9375 3.515625 -49.78125 C 4.960938 -52.625 6.90625 -55.109375 9.34375 -57.234375 C 11.789062 -59.367188 14.550781 -61.039062 17.625 -62.25 C 20.707031 -63.457031 23.851562 -64.0625 27.0625 -64.0625 Z M 32.34375 -23.4375 L 32.34375 -39.203125 C 32.34375 -40.628906 31.816406 -41.851562 30.765625 -42.875 C 29.710938 -43.90625 28.476562 -44.421875 27.0625 -44.421875 C 25.582031 -44.421875 24.34375 -43.90625 23.34375 -42.875 C 22.351562 -41.851562 21.859375 -40.628906 21.859375 -39.203125 L 21.859375 -23.4375 C 21.859375 -22.113281 22.351562 -20.9375 23.34375 -19.90625 C 24.34375 -18.882812 25.582031 -18.375 27.0625 -18.375 C 28.476562 -18.375 29.710938 -18.882812 30.765625 -19.90625 C 31.816406 -20.9375 32.34375 -22.113281 32.34375 -23.4375 Z M 32.34375 -23.4375 "/></g></g></g><path stroke-linecap="butt" transform="matrix(0.411688, 0, 0, 0.411688, 37.500002, 113.500392)" fill="none" stroke-linejoin="miter" d="M 147.629761 101.999176 C 147.629761 109.675279 146.197015 116.82952 143.322035 123.480878 C 140.456543 130.122746 136.499887 135.967591 131.442578 141.0249 C 126.38527 146.07272 120.51196 150.000911 113.803673 152.809472 C 107.095385 155.618034 99.969609 157.022315 92.426343 157.022315 C 84.750241 157.022315 77.586511 155.618034 70.944642 152.809472 C 64.302773 150.000911 58.457929 146.07272 53.40062 141.0249 C 48.381265 135.967591 44.462562 130.122746 41.654001 123.480878 C 38.854927 116.82952 37.450647 109.675279 37.450647 101.999176 L 37.450647 76.921377 C 37.450647 74.985747 38.114834 73.353745 39.462184 72.015883 C 40.800046 70.668532 42.42256 70.004345 44.320237 70.004345 L 82.64382 70.004345 C 84.57945 70.004345 86.211452 70.668532 87.558802 72.015883 C 88.896665 73.353745 89.57034 74.985747 89.57034 76.921377 L 89.57034 95.86968 C 89.817038 98.184846 91.031551 99.33294 93.213879 99.33294 C 94.219648 99.33294 95.092579 98.991359 95.832673 98.308195 C 96.620209 97.587078 97.009233 96.657216 97.009233 95.499633 L 97.009233 12.125203 C 97.009233 8.813757 98.195281 5.97673 100.567377 3.604634 C 102.929984 1.242027 105.710081 0.0559787 108.88869 0.0559787 L 135.750305 0.0559787 C 138.928913 0.0559787 141.699521 1.242027 144.071617 3.604634 C 146.443713 5.97673 147.629761 8.813757 147.629761 12.125203 Z M 216.610313 -2.610257 C 224.656463 -2.610257 232.408472 -1.149046 239.856854 1.782865 C 247.343189 4.714775 254.023011 8.766315 259.886832 13.946973 C 265.779119 19.127631 270.447404 25.18122 273.87271 32.098251 C 277.33597 38.996307 279.072345 46.406734 279.072345 54.329535 L 279.072345 97.976101 C 279.072345 106.183554 277.33597 113.821703 273.87271 120.900037 C 270.447404 127.98786 265.779119 134.174286 259.886832 139.478293 C 254.023011 144.7823 247.343189 148.909747 239.856854 151.879611 C 232.408472 154.811521 224.656463 156.272733 216.610313 156.272733 C 208.810861 156.272733 201.163224 154.811521 193.686377 151.879611 C 186.228507 148.909747 179.52022 144.7823 173.561515 139.478293 C 167.640763 134.174286 162.915548 127.98786 159.385869 120.900037 C 155.894144 113.821703 154.148281 106.183554 154.148281 97.976101 L 154.148281 54.329535 C 154.148281 46.406734 155.894144 38.996307 159.385869 32.098251 C 162.915548 25.18122 167.640763 19.127631 173.561515 13.946973 C 179.52022 8.766315 186.228507 4.714775 193.686377 1.782865 C 201.163224 -1.149046 208.810861 -2.610257 216.610313 -2.610257 Z M 229.42912 96.059448 L 229.42912 57.745353 C 229.42912 54.310558 228.148188 51.350183 225.586324 48.854738 C 223.062414 46.359293 220.073573 45.106826 216.610313 45.106826 C 213.023704 45.106826 210.006398 46.359293 207.577371 48.854738 C 205.17681 51.350183 203.971785 54.310558 203.971785 57.745353 L 203.971785 96.059448 C 203.971785 99.27601 205.17681 102.122525 207.577371 104.61797 C 210.006398 107.113415 213.023704 108.365882 216.610313 108.365882 C 220.073573 108.365882 223.062414 107.113415 225.586324 104.61797 C 228.148188 102.122525 229.42912 99.27601 229.42912 96.059448 Z M 428.533369 136.906941 C 429.188068 139.715503 428.94137 142.486111 427.783787 145.237742 C 426.635692 147.979885 424.775969 150.048353 422.223594 151.452634 C 420.563127 152.486867 418.646473 152.99924 416.464145 152.99924 L 390.409042 152.99924 C 386.812945 152.99924 384.13722 151.927053 382.353404 149.77319 C 380.579077 147.590861 378.985028 144.706393 377.580747 141.119783 L 371.830786 126.194555 L 342.492703 126.194555 L 336.923022 141.119783 C 335.518741 144.706393 333.934181 147.552908 332.150365 149.678306 C 330.376037 151.76575 327.690824 152.809472 324.104215 152.809472 L 298.049113 152.809472 C 295.990133 152.809472 294.320178 152.486867 293.039246 151.832169 C 290.230684 150.551237 288.162217 148.473281 286.814866 145.607789 C 285.477004 142.742297 285.192352 139.772433 285.979888 136.717173 L 320.460676 10.018782 C 320.830723 8.244454 321.504398 6.773755 322.472213 5.616172 C 323.440028 4.468077 324.36989 3.576169 325.280775 2.949936 C 327.3018 1.298957 329.787757 0.473468 332.719668 0.473468 L 382.922707 0.473468 C 384.326988 0.473468 385.854618 0.720166 387.505597 1.22305 C 389.185041 1.725934 390.731647 2.674773 392.135928 4.079054 C 393.540209 5.635149 394.460582 7.21022 394.897048 8.804269 C 395.361979 10.388829 395.722537 11.764645 395.969235 12.922227 Z M 366.261105 81.883802 C 367.162502 81.883802 367.864642 81.513755 368.367526 80.764173 C 368.870411 79.976637 368.99376 79.151148 368.737573 78.278216 L 363.784637 65.231688 L 359.761562 55.259397 C 359.353562 53.978465 358.509095 53.342743 357.228164 53.342743 C 355.985185 53.342743 355.159696 53.978465 354.751695 55.259397 L 350.918388 65.231688 L 345.955963 78.278216 C 345.424614 79.151148 345.472056 79.976637 346.098289 80.764173 C 346.752988 81.513755 347.531035 81.883802 348.432432 81.883802 Z M 513.444917 92.273583 L 557.148414 92.273583 C 557.765159 92.273583 558.362927 92.548746 558.922742 93.10856 C 559.52051 93.677863 559.81465 94.28512 559.81465 94.939819 L 559.81465 97.226519 C 559.81465 105.405506 558.078276 113.01519 554.615015 120.065059 C 551.189709 127.076975 546.559377 133.244425 540.724021 138.538943 C 534.91713 143.84295 528.313215 147.960908 520.88381 150.892819 C 513.492359 153.82473 505.768815 155.295429 497.722665 155.295429 C 489.932702 155.295429 482.285064 153.82473 474.798729 150.892819 C 467.34086 147.960908 460.670526 143.84295 454.778239 138.538943 C 448.914418 133.244425 444.217668 127.076975 440.687989 120.065059 C 437.196264 113.01519 435.450401 105.405506 435.450401 97.226519 L 435.450401 53.902558 C 435.450401 45.979757 437.196264 38.607283 440.687989 31.775646 C 444.217668 24.94401 448.914418 18.937863 454.778239 13.757205 C 460.670526 8.586036 467.34086 4.525008 474.798729 1.593097 C 482.285064 -1.338814 489.932702 -2.800025 497.722665 -2.800025 C 505.768815 -2.800025 513.492359 -1.338814 520.88381 1.593097 C 528.313215 4.525008 534.91713 8.586036 540.724021 13.757205 C 546.559377 18.937863 551.189709 24.94401 554.615015 31.775646 C 558.078276 38.607283 559.81465 45.979757 559.81465 53.902558 L 559.81465 57.365818 C 559.81465 58.143865 559.52051 58.836517 558.922742 59.424797 C 558.362927 59.984612 557.765159 60.269263 557.148414 60.269263 L 513.444917 60.269263 C 512.543521 60.269263 511.793939 59.956147 511.19617 59.329913 C 510.636356 58.675215 510.361193 57.963586 510.361193 57.17605 L 510.361193 56.246189 C 510.361193 54.433907 509.839331 52.640603 508.814586 50.866275 C 507.818306 49.053994 506.613281 47.716131 505.209 46.8432 C 501.74574 44.784221 498.472247 44.110546 495.388523 44.831663 C 492.333263 45.514826 489.837818 47.013991 487.902188 49.319668 C 485.995023 51.625346 485.046184 54.310558 485.046184 57.365818 L 485.046184 95.309866 C 485.046184 98.526428 486.260697 101.382431 488.699212 103.877876 C 491.128238 106.335368 494.136056 107.568858 497.722665 107.568858 C 501.034111 107.568858 503.966022 106.335368 506.518397 103.877876 C 509.080261 101.382431 510.361193 98.526428 510.361193 95.309866 C 510.361193 93.279351 511.385938 92.273583 513.444917 92.273583 Z M 628.795201 -2.610257 C 636.841351 -2.610257 644.593361 -1.149046 652.041742 1.782865 C 659.528077 4.714775 666.207899 8.766315 672.071721 13.946973 C 677.964007 19.127631 682.632292 25.18122 686.057599 32.098251 C 689.520859 38.996307 691.257233 46.406734 691.257233 54.329535 L 691.257233 97.976101 C 691.257233 106.183554 689.520859 113.821703 686.057599 120.900037 C 682.632292 127.98786 677.964007 134.174286 672.071721 139.478293 C 666.207899 144.7823 659.528077 148.909747 652.041742 151.879611 C 644.593361 154.811521 636.841351 156.272733 628.795201 156.272733 C 620.99575 156.272733 613.357601 154.811521 605.871266 151.879611 C 598.413396 148.909747 591.705108 144.7823 585.746403 139.478293 C 579.825652 134.174286 575.100436 127.98786 571.570758 120.900037 C 568.079032 113.821703 566.33317 106.183554 566.33317 97.976101 L 566.33317 54.329535 C 566.33317 46.406734 568.079032 38.996307 571.570758 32.098251 C 575.100436 25.18122 579.825652 19.127631 585.746403 13.946973 C 591.705108 8.766315 598.413396 4.714775 605.871266 1.782865 C 613.357601 -1.149046 620.99575 -2.610257 628.795201 -2.610257 Z M 641.614008 96.059448 L 641.614008 57.745353 C 641.614008 54.310558 640.333076 51.350183 637.780701 48.854738 C 635.247303 46.359293 632.258462 45.106826 628.795201 45.106826 C 625.208592 45.106826 622.200775 46.359293 619.76226 48.854738 C 617.361699 51.350183 616.156674 54.310558 616.156674 57.745353 L 616.156674 96.059448 C 616.156674 99.27601 617.361699 102.122525 619.76226 104.61797 C 622.200775 107.113415 625.208592 108.365882 628.795201 108.365882 C 632.258462 108.365882 635.247303 107.113415 637.780701 104.61797 C 640.333076 102.122525 641.614008 99.27601 641.614008 96.059448 Z M 641.614008 96.059448 " stroke="#5271ff" stroke-width="3.114264" stroke-opacity="1" stroke-miterlimit="4"/></svg>