<svg xmlns="http://www.w3.org/2000/svg" xmlns:xlink="http://www.w3.org/1999/xlink" width="100" zoomAndPan="magnify" viewBox="0 0 75 37.5" height="50" preserveAspectRatio="xMidYMid meet" version="1.0"><defs><g/></defs><g fill="#5ce1e6" fill-opacity="1"><g transform="translate(8.389048, 19.181808)"><g><path d="M 9.8125 -4.40625 C 9.8125 -3.738281 9.6875 -3.117188 9.4375 -2.546875 C 9.1875 -1.972656 8.84375 -1.46875 8.40625 -1.03125 C 7.96875 -0.59375 7.457031 -0.253906 6.875 -0.015625 C 6.300781 0.222656 5.6875 0.34375 5.03125 0.34375 C 4.375 0.34375 3.753906 0.222656 3.171875 -0.015625 C 2.597656 -0.253906 2.09375 -0.59375 1.65625 -1.03125 C 1.226562 -1.46875 0.890625 -1.972656 0.640625 -2.546875 C 0.398438 -3.117188 0.28125 -3.738281 0.28125 -4.40625 L 0.28125 -6.578125 C 0.28125 -6.742188 0.335938 -6.882812 0.453125 -7 C 0.566406 -7.113281 0.707031 -7.171875 0.875 -7.171875 L 4.1875 -7.171875 C 4.351562 -7.171875 4.492188 -7.113281 4.609375 -7 C 4.722656 -6.882812 4.78125 -6.742188 4.78125 -6.578125 L 4.78125 -4.9375 C 4.800781 -4.738281 4.90625 -4.640625 5.09375 -4.640625 C 5.1875 -4.640625 5.265625 -4.664062 5.328125 -4.71875 C 5.398438 -4.78125 5.4375 -4.863281 5.4375 -4.96875 L 5.4375 -12.171875 C 5.4375 -12.460938 5.535156 -12.707031 5.734375 -12.90625 C 5.941406 -13.113281 6.179688 -13.21875 6.453125 -13.21875 L 8.78125 -13.21875 C 9.050781 -13.21875 9.289062 -13.113281 9.5 -12.90625 C 9.707031 -12.707031 9.8125 -12.460938 9.8125 -12.171875 Z M 9.8125 -4.40625 "/></g></g></g><g fill="#5ce1e6" fill-opacity="1"><g transform="translate(18.474402, 19.181808)"><g><path d="M 5.6875 -13.453125 C 6.375 -13.453125 7.039062 -13.320312 7.6875 -13.0625 C 8.332031 -12.8125 8.910156 -12.460938 9.421875 -12.015625 C 9.929688 -11.566406 10.332031 -11.046875 10.625 -10.453125 C 10.925781 -9.859375 11.078125 -9.21875 11.078125 -8.53125 L 11.078125 -4.75 C 11.078125 -4.039062 10.925781 -3.378906 10.625 -2.765625 C 10.332031 -2.160156 9.929688 -1.628906 9.421875 -1.171875 C 8.910156 -0.710938 8.332031 -0.351562 7.6875 -0.09375 C 7.039062 0.15625 6.375 0.28125 5.6875 0.28125 C 5.007812 0.28125 4.347656 0.15625 3.703125 -0.09375 C 3.054688 -0.351562 2.472656 -0.710938 1.953125 -1.171875 C 1.441406 -1.628906 1.035156 -2.160156 0.734375 -2.765625 C 0.429688 -3.378906 0.28125 -4.039062 0.28125 -4.75 L 0.28125 -8.53125 C 0.28125 -9.21875 0.429688 -9.859375 0.734375 -10.453125 C 1.035156 -11.046875 1.441406 -11.566406 1.953125 -12.015625 C 2.472656 -12.460938 3.054688 -12.8125 3.703125 -13.0625 C 4.347656 -13.320312 5.007812 -13.453125 5.6875 -13.453125 Z M 6.796875 -4.921875 L 6.796875 -8.234375 C 6.796875 -8.523438 6.679688 -8.78125 6.453125 -9 C 6.234375 -9.21875 5.976562 -9.328125 5.6875 -9.328125 C 5.375 -9.328125 5.113281 -9.21875 4.90625 -9 C 4.695312 -8.78125 4.59375 -8.523438 4.59375 -8.234375 L 4.59375 -4.921875 C 4.59375 -4.640625 4.695312 -4.390625 4.90625 -4.171875 C 5.113281 -3.960938 5.375 -3.859375 5.6875 -3.859375 C 5.976562 -3.859375 6.234375 -3.960938 6.453125 -4.171875 C 6.679688 -4.390625 6.796875 -4.640625 6.796875 -4.921875 Z M 6.796875 -4.921875 "/></g></g></g><g fill="#5ce1e6" fill-opacity="1"><g transform="translate(29.834917, 19.181808)"><g><path d="M 12.640625 -1.390625 C 12.691406 -1.148438 12.664062 -0.910156 12.5625 -0.671875 C 12.46875 -0.429688 12.3125 -0.25 12.09375 -0.125 C 11.945312 -0.0390625 11.78125 0 11.59375 0 L 9.34375 0 C 9.03125 0 8.796875 -0.09375 8.640625 -0.28125 C 8.484375 -0.46875 8.347656 -0.71875 8.234375 -1.03125 L 7.734375 -2.3125 L 5.203125 -2.3125 L 4.71875 -1.03125 C 4.59375 -0.71875 4.453125 -0.46875 4.296875 -0.28125 C 4.148438 -0.101562 3.921875 -0.015625 3.609375 -0.015625 L 1.359375 -0.015625 C 1.179688 -0.015625 1.035156 -0.0390625 0.921875 -0.09375 C 0.679688 -0.207031 0.503906 -0.390625 0.390625 -0.640625 C 0.273438 -0.890625 0.25 -1.144531 0.3125 -1.40625 L 3.296875 -12.359375 C 3.328125 -12.515625 3.382812 -12.640625 3.46875 -12.734375 C 3.550781 -12.835938 3.628906 -12.914062 3.703125 -12.96875 C 3.878906 -13.113281 4.097656 -13.1875 4.359375 -13.1875 L 8.6875 -13.1875 C 8.8125 -13.1875 8.945312 -13.160156 9.09375 -13.109375 C 9.238281 -13.066406 9.367188 -12.988281 9.484375 -12.875 C 9.609375 -12.738281 9.6875 -12.597656 9.71875 -12.453125 C 9.757812 -12.316406 9.796875 -12.203125 9.828125 -12.109375 Z M 7.25 -6.140625 C 7.332031 -6.140625 7.394531 -6.171875 7.4375 -6.234375 C 7.476562 -6.304688 7.488281 -6.378906 7.46875 -6.453125 L 7.03125 -7.578125 L 6.6875 -8.453125 C 6.65625 -8.554688 6.582031 -8.609375 6.46875 -8.609375 C 6.363281 -8.609375 6.296875 -8.554688 6.265625 -8.453125 L 5.921875 -7.578125 L 5.5 -6.453125 C 5.457031 -6.378906 5.460938 -6.304688 5.515625 -6.234375 C 5.566406 -6.171875 5.632812 -6.140625 5.71875 -6.140625 Z M 7.25 -6.140625 "/></g></g></g><g fill="#5ce1e6" fill-opacity="1"><g transform="translate(42.785243, 19.181808)"><g><path d="M 7.015625 -5.25 L 10.796875 -5.25 C 10.847656 -5.25 10.898438 -5.222656 10.953125 -5.171875 C 11.003906 -5.117188 11.03125 -5.066406 11.03125 -5.015625 L 11.03125 -4.8125 C 11.03125 -4.113281 10.878906 -3.457031 10.578125 -2.84375 C 10.285156 -2.238281 9.882812 -1.707031 9.375 -1.25 C 8.875 -0.789062 8.300781 -0.429688 7.65625 -0.171875 C 7.019531 0.078125 6.359375 0.203125 5.671875 0.203125 C 4.992188 0.203125 4.332031 0.078125 3.6875 -0.171875 C 3.039062 -0.429688 2.460938 -0.789062 1.953125 -1.25 C 1.441406 -1.707031 1.035156 -2.238281 0.734375 -2.84375 C 0.429688 -3.457031 0.28125 -4.113281 0.28125 -4.8125 L 0.28125 -8.5625 C 0.28125 -9.25 0.429688 -9.882812 0.734375 -10.46875 C 1.035156 -11.0625 1.441406 -11.582031 1.953125 -12.03125 C 2.460938 -12.476562 3.039062 -12.828125 3.6875 -13.078125 C 4.332031 -13.335938 4.992188 -13.46875 5.671875 -13.46875 C 6.359375 -13.46875 7.019531 -13.335938 7.65625 -13.078125 C 8.300781 -12.828125 8.875 -12.476562 9.375 -12.03125 C 9.882812 -11.582031 10.285156 -11.0625 10.578125 -10.46875 C 10.878906 -9.882812 11.03125 -9.25 11.03125 -8.5625 L 11.03125 -8.265625 C 11.03125 -8.203125 11.003906 -8.144531 10.953125 -8.09375 C 10.898438 -8.039062 10.847656 -8.015625 10.796875 -8.015625 L 7.015625 -8.015625 C 6.941406 -8.015625 6.878906 -8.039062 6.828125 -8.09375 C 6.773438 -8.15625 6.75 -8.21875 6.75 -8.28125 L 6.75 -8.359375 C 6.75 -8.515625 6.707031 -8.671875 6.625 -8.828125 C 6.539062 -8.984375 6.4375 -9.097656 6.3125 -9.171875 C 6.007812 -9.347656 5.722656 -9.40625 5.453125 -9.34375 C 5.191406 -9.289062 4.976562 -9.160156 4.8125 -8.953125 C 4.65625 -8.753906 4.578125 -8.523438 4.578125 -8.265625 L 4.578125 -4.984375 C 4.578125 -4.710938 4.679688 -4.46875 4.890625 -4.25 C 5.097656 -4.03125 5.359375 -3.921875 5.671875 -3.921875 C 5.953125 -3.921875 6.203125 -4.03125 6.421875 -4.25 C 6.640625 -4.46875 6.75 -4.710938 6.75 -4.984375 C 6.75 -5.160156 6.835938 -5.25 7.015625 -5.25 Z M 7.015625 -5.25 "/></g></g></g><g fill="#5ce1e6" fill-opacity="1"><g transform="translate(54.096079, 19.181808)"><g><path d="M 5.6875 -13.453125 C 6.375 -13.453125 7.039062 -13.320312 7.6875 -13.0625 C 8.332031 -12.8125 8.910156 -12.460938 9.421875 -12.015625 C 9.929688 -11.566406 10.332031 -11.046875 10.625 -10.453125 C 10.925781 -9.859375 11.078125 -9.21875 11.078125 -8.53125 L 11.078125 -4.75 C 11.078125 -4.039062 10.925781 -3.378906 10.625 -2.765625 C 10.332031 -2.160156 9.929688 -1.628906 9.421875 -1.171875 C 8.910156 -0.710938 8.332031 -0.351562 7.6875 -0.09375 C 7.039062 0.15625 6.375 0.28125 5.6875 0.28125 C 5.007812 0.28125 4.347656 0.15625 3.703125 -0.09375 C 3.054688 -0.351562 2.472656 -0.710938 1.953125 -1.171875 C 1.441406 -1.628906 1.035156 -2.160156 0.734375 -2.765625 C 0.429688 -3.378906 0.28125 -4.039062 0.28125 -4.75 L 0.28125 -8.53125 C 0.28125 -9.21875 0.429688 -9.859375 0.734375 -10.453125 C 1.035156 -11.046875 1.441406 -11.566406 1.953125 -12.015625 C 2.472656 -12.460938 3.054688 -12.8125 3.703125 -13.0625 C 4.347656 -13.320312 5.007812 -13.453125 5.6875 -13.453125 Z M 6.796875 -4.921875 L 6.796875 -8.234375 C 6.796875 -8.523438 6.679688 -8.78125 6.453125 -9 C 6.234375 -9.21875 5.976562 -9.328125 5.6875 -9.328125 C 5.375 -9.328125 5.113281 -9.21875 4.90625 -9 C 4.695312 -8.78125 4.59375 -8.523438 4.59375 -8.234375 L 4.59375 -4.921875 C 4.59375 -4.640625 4.695312 -4.390625 4.90625 -4.171875 C 5.113281 -3.960938 5.375 -3.859375 5.6875 -3.859375 C 5.976562 -3.859375 6.234375 -3.960938 6.453125 -4.171875 C 6.679688 -4.390625 6.796875 -4.640625 6.796875 -4.921875 Z M 6.796875 -4.921875 "/></g></g></g><path stroke-linecap="butt" transform="matrix(0.740132, 0, 0, 0.740132, 0.493421, 6.185713)" fill="none" stroke-linejoin="miter" d="M 24.687779 11.043526 C 24.687779 11.940748 24.51889 12.774637 24.18639 13.55047 C 23.848612 14.326304 23.389445 15.012415 22.798334 15.603526 C 22.207223 16.189359 21.521112 16.648526 20.734723 16.975748 C 19.953612 17.308248 19.119723 17.471859 18.238334 17.471859 C 17.34639 17.471859 16.507223 17.308248 15.73139 16.975748 C 14.955556 16.648526 14.274723 16.189359 13.683612 15.603526 C 13.097778 15.012415 12.638612 14.326304 12.311389 13.55047 C 11.984167 12.774637 11.820556 11.940748 11.820556 11.043526 L 11.820556 8.114359 C 11.820556 7.887414 11.899723 7.697414 12.052778 7.544359 C 12.211112 7.386025 12.401112 7.306859 12.622778 7.306859 L 17.098334 7.306859 C 17.325278 7.306859 17.515279 7.386025 17.673612 7.544359 C 17.826667 7.697414 17.905834 7.887414 17.905834 8.114359 L 17.905834 10.331026 C 17.937501 10.600192 18.080001 10.732137 18.333334 10.732137 C 18.449445 10.732137 18.549723 10.695192 18.639445 10.610748 C 18.729167 10.531581 18.776667 10.420748 18.776667 10.283526 L 18.776667 0.546025 C 18.776667 0.160747 18.91389 -0.171753 19.188334 -0.446197 C 19.468056 -0.720642 19.790001 -0.863142 20.164723 -0.863142 L 23.299723 -0.863142 C 23.669168 -0.863142 23.99639 -0.720642 24.270834 -0.446197 C 24.550557 -0.171753 24.687779 0.160747 24.687779 0.546025 Z M 32.741668 -1.17453 C 33.681113 -1.17453 34.583613 -1.000364 35.454446 -0.657308 C 36.330557 -0.314253 37.111668 0.15547 37.792502 0.762414 C 38.48389 1.364081 39.027502 2.071303 39.428613 2.878803 C 39.835002 3.686303 40.035557 4.551859 40.035557 5.47547 L 40.035557 10.573803 C 40.035557 11.534359 39.835002 12.426303 39.428613 13.249637 C 39.027502 14.078248 38.48389 14.801304 37.792502 15.418804 C 37.111668 16.041581 36.330557 16.521859 35.454446 16.870193 C 34.583613 17.213248 33.681113 17.382137 32.741668 17.382137 C 31.828612 17.382137 30.936668 17.213248 30.065835 16.870193 C 29.195001 16.521859 28.408612 16.041581 27.711946 15.418804 C 27.020557 14.801304 26.471668 14.078248 26.060001 13.249637 C 25.648334 12.426303 25.447779 11.534359 25.447779 10.573803 L 25.447779 5.47547 C 25.447779 4.551859 25.648334 3.686303 26.060001 2.878803 C 26.471668 2.071303 27.020557 1.364081 27.711946 0.762414 C 28.408612 0.15547 29.195001 -0.314253 30.065835 -0.657308 C 30.936668 -1.000364 31.828612 -1.17453 32.741668 -1.17453 Z M 34.235279 10.352137 L 34.235279 5.876581 C 34.235279 5.47547 34.087501 5.127136 33.791946 4.836859 C 33.49639 4.546581 33.142779 4.398803 32.741668 4.398803 C 32.319446 4.398803 31.971112 4.546581 31.686112 4.836859 C 31.40639 5.127136 31.26389 5.47547 31.26389 5.876581 L 31.26389 10.352137 C 31.26389 10.726859 31.40639 11.059359 31.686112 11.349637 C 31.971112 11.639915 32.319446 11.787692 32.741668 11.787692 C 33.142779 11.787692 33.49639 11.639915 33.791946 11.349637 C 34.087501 11.059359 34.235279 10.726859 34.235279 10.352137 Z M 57.489169 15.11797 C 57.563058 15.45047 57.536669 15.772415 57.399447 16.094359 C 57.267502 16.411026 57.051113 16.653804 56.75028 16.817415 C 56.555002 16.938804 56.333336 17.002137 56.080002 17.002137 L 53.034724 17.002137 C 52.61778 17.002137 52.301113 16.87547 52.09528 16.622137 C 51.889447 16.368804 51.699447 16.031026 51.535835 15.614081 L 50.865558 13.867137 L 47.44028 13.867137 L 46.791113 15.614081 C 46.627502 16.031026 46.437502 16.363526 46.231669 16.611581 C 46.025835 16.854359 45.709169 16.975748 45.292224 16.975748 L 42.246946 16.975748 C 42.009446 16.975748 41.814168 16.938804 41.666391 16.864915 C 41.339168 16.711859 41.096391 16.474359 40.938057 16.136581 C 40.779724 15.804081 40.748057 15.455748 40.837779 15.096859 L 44.864724 0.303247 C 44.912224 0.0974141 44.986113 -0.0767526 45.102224 -0.208697 C 45.213057 -0.345919 45.323891 -0.451475 45.429446 -0.520086 C 45.666946 -0.715364 45.957224 -0.810364 46.30028 -0.810364 L 52.158613 -0.810364 C 52.322224 -0.810364 52.501669 -0.783975 52.696947 -0.725919 C 52.892224 -0.667864 53.071669 -0.55703 53.23528 -0.393419 C 53.398891 -0.208697 53.509724 -0.0239748 53.557224 0.160747 C 53.61528 0.34547 53.657502 0.503803 53.683891 0.641025 Z M 50.216391 8.694914 C 50.321947 8.694914 50.401113 8.652692 50.459169 8.56297 C 50.517224 8.473248 50.533058 8.378248 50.506669 8.272692 L 49.926113 6.747414 L 49.456391 5.586303 C 49.408891 5.438525 49.308613 5.359359 49.160835 5.359359 C 49.013058 5.359359 48.918058 5.438525 48.870558 5.586303 L 48.421946 6.747414 L 47.846669 8.272692 C 47.783335 8.378248 47.788613 8.473248 47.862502 8.56297 C 47.936391 8.652692 48.026113 8.694914 48.131669 8.694914 Z M 67.400836 9.908803 L 72.504447 9.908803 C 72.578336 9.908803 72.646947 9.94047 72.710281 10.003803 C 72.778892 10.072414 72.815836 10.141026 72.815836 10.220192 L 72.815836 10.489359 C 72.815836 11.439359 72.615281 12.331303 72.208892 13.154637 C 71.807781 13.972692 71.269447 14.69047 70.588614 15.313248 C 69.907781 15.930748 69.137225 16.411026 68.27167 16.754081 C 67.406114 17.097137 66.503614 17.266026 65.564169 17.266026 C 64.656392 17.266026 63.764447 17.097137 62.888336 16.754081 C 62.017503 16.411026 61.236391 15.930748 60.55028 15.313248 C 59.864169 14.69047 59.31528 13.972692 58.903614 13.154637 C 58.497225 12.331303 58.291391 11.439359 58.291391 10.489359 L 58.291391 5.42797 C 58.291391 4.504359 58.497225 3.638803 58.903614 2.841859 C 59.31528 2.044914 59.864169 1.34297 60.55028 0.741303 C 61.236391 0.134359 62.017503 -0.340642 62.888336 -0.683697 C 63.764447 -1.021475 64.656392 -1.195642 65.564169 -1.195642 C 66.503614 -1.195642 67.406114 -1.021475 68.27167 -0.683697 C 69.137225 -0.340642 69.907781 0.134359 70.588614 0.741303 C 71.269447 1.34297 71.807781 2.044914 72.208892 2.841859 C 72.615281 3.638803 72.815836 4.504359 72.815836 5.42797 L 72.815836 5.834359 C 72.815836 5.924081 72.778892 6.003248 72.710281 6.071859 C 72.646947 6.14047 72.578336 6.172137 72.504447 6.172137 L 67.400836 6.172137 C 67.295281 6.172137 67.210836 6.135192 67.136947 6.061303 C 67.073614 5.987414 67.041947 5.90297 67.041947 5.80797 L 67.041947 5.702414 C 67.041947 5.491303 66.978614 5.280192 66.862503 5.074359 C 66.746392 4.863248 66.603892 4.704914 66.440281 4.604636 C 66.033892 4.361859 65.653892 4.282692 65.289725 4.367136 C 64.936114 4.446303 64.645836 4.62047 64.418892 4.889636 C 64.197225 5.164081 64.086392 5.47547 64.086392 5.834359 L 64.086392 10.262414 C 64.086392 10.637137 64.228892 10.969637 64.508614 11.265192 C 64.793614 11.550192 65.147225 11.692692 65.564169 11.692692 C 65.949447 11.692692 66.292503 11.550192 66.593336 11.265192 C 66.888892 10.969637 67.041947 10.637137 67.041947 10.262414 C 67.041947 10.024914 67.163336 9.908803 67.400836 9.908803 Z M 80.869726 -1.17453 C 81.80917 -1.17453 82.716948 -1.000364 83.582503 -0.657308 C 84.458615 -0.314253 85.239726 0.15547 85.925837 0.762414 C 86.611948 1.364081 87.155559 2.071303 87.55667 2.878803 C 87.963059 3.686303 88.163615 4.551859 88.163615 5.47547 L 88.163615 10.573803 C 88.163615 11.534359 87.963059 12.426303 87.55667 13.249637 C 87.155559 14.078248 86.611948 14.801304 85.925837 15.418804 C 85.239726 16.041581 84.458615 16.521859 83.582503 16.870193 C 82.716948 17.213248 81.80917 17.382137 80.869726 17.382137 C 79.95667 17.382137 79.064726 17.213248 78.193892 16.870193 C 77.323059 16.521859 76.53667 16.041581 75.845281 15.418804 C 75.148614 14.801304 74.599725 14.078248 74.188059 13.249637 C 73.78167 12.426303 73.575836 11.534359 73.575836 10.573803 L 73.575836 5.47547 C 73.575836 4.551859 73.78167 3.686303 74.188059 2.878803 C 74.599725 2.071303 75.148614 1.364081 75.845281 0.762414 C 76.53667 0.15547 77.323059 -0.314253 78.193892 -0.657308 C 79.064726 -1.000364 79.95667 -1.17453 80.869726 -1.17453 Z M 82.368615 10.352137 L 82.368615 5.876581 C 82.368615 5.47547 82.215559 5.127136 81.920003 4.836859 C 81.624448 4.546581 81.276114 4.398803 80.869726 4.398803 C 80.452781 4.398803 80.09917 4.546581 79.81417 4.836859 C 79.534448 5.127136 79.391948 5.47547 79.391948 5.876581 L 79.391948 10.352137 C 79.391948 10.726859 79.534448 11.059359 79.81417 11.349637 C 80.09917 11.639915 80.452781 11.787692 80.869726 11.787692 C 81.276114 11.787692 81.624448 11.639915 81.920003 11.349637 C 82.215559 11.059359 82.368615 10.726859 82.368615 10.352137 Z M 82.368615 10.352137 " stroke="#b2edef" stroke-width="0.363738" stroke-opacity="1" stroke-miterlimit="4"/><g fill="#ffa7e4" fill-opacity="1"><g transform="translate(11.867754, 27.912973)"><g><path d="M 7.859375 -0.53125 C 7.859375 -0.382812 7.804688 -0.257812 7.703125 -0.15625 C 7.609375 -0.0507812 7.484375 0 7.328125 0 L 6.3125 0 C 6.1875 0 6.078125 -0.0390625 5.984375 -0.125 C 5.890625 -0.207031 5.828125 -0.3125 5.796875 -0.4375 L 5.4375 -2.609375 L 5.390625 -2.75 L 5.375 -2.671875 L 5.078125 -0.46875 C 5.066406 -0.34375 5.007812 -0.234375 4.90625 -0.140625 C 4.8125 -0.046875 4.695312 0 4.5625 0 L 3.453125 0 C 3.316406 0 3.195312 -0.046875 3.09375 -0.140625 C 3 -0.234375 2.945312 -0.34375 2.9375 -0.46875 L 2.609375 -2.828125 L 2.5625 -2.609375 L 2.1875 -0.4375 C 2.164062 -0.3125 2.109375 -0.207031 2.015625 -0.125 C 1.921875 -0.0390625 1.8125 0 1.6875 0 L 0.65625 0 C 0.507812 0 0.382812 -0.0507812 0.28125 -0.15625 C 0.175781 -0.257812 0.125 -0.382812 0.125 -0.53125 C 0.125 -0.539062 0.125 -0.550781 0.125 -0.5625 C 0.125 -0.582031 0.128906 -0.601562 0.140625 -0.625 L 0.234375 -1.25 L 0.578125 -3.265625 L 0.953125 -5.5625 C 0.984375 -5.726562 1.0625 -5.863281 1.1875 -5.96875 C 1.3125 -6.070312 1.457031 -6.125 1.625 -6.125 L 2.953125 -6.125 C 3.140625 -6.125 3.296875 -6.0625 3.421875 -5.9375 C 3.554688 -5.820312 3.632812 -5.679688 3.65625 -5.515625 L 3.859375 -3.765625 C 3.859375 -3.734375 3.867188 -3.703125 3.890625 -3.671875 C 3.921875 -3.640625 3.957031 -3.625 4 -3.625 C 4.070312 -3.625 4.113281 -3.664062 4.125 -3.75 L 4.4375 -5.5625 C 4.457031 -5.726562 4.53125 -5.863281 4.65625 -5.96875 C 4.789062 -6.070312 4.941406 -6.125 5.109375 -6.125 L 6.4375 -6.125 C 6.613281 -6.125 6.765625 -6.066406 6.890625 -5.953125 C 7.023438 -5.835938 7.109375 -5.695312 7.140625 -5.53125 C 7.253906 -4.707031 7.351562 -4.007812 7.4375 -3.4375 C 7.519531 -2.863281 7.585938 -2.394531 7.640625 -2.03125 C 7.691406 -1.664062 7.734375 -1.382812 7.765625 -1.1875 C 7.796875 -0.988281 7.816406 -0.84375 7.828125 -0.75 C 7.847656 -0.65625 7.859375 -0.597656 7.859375 -0.578125 C 7.859375 -0.554688 7.859375 -0.539062 7.859375 -0.53125 Z M 7.859375 -0.53125 "/></g></g></g><g fill="#ffa7e4" fill-opacity="1"><g transform="translate(19.860801, 27.912973)"><g><path d="M 5.859375 -0.640625 C 5.890625 -0.535156 5.878906 -0.425781 5.828125 -0.3125 C 5.785156 -0.195312 5.710938 -0.113281 5.609375 -0.0625 C 5.546875 -0.0195312 5.46875 0 5.375 0 L 4.328125 0 C 4.191406 0 4.085938 -0.0390625 4.015625 -0.125 C 3.941406 -0.21875 3.878906 -0.335938 3.828125 -0.484375 L 3.59375 -1.078125 L 2.40625 -1.078125 L 2.1875 -0.484375 C 2.132812 -0.335938 2.070312 -0.21875 2 -0.125 C 1.925781 -0.0390625 1.816406 0 1.671875 0 L 0.625 0 C 0.539062 0 0.476562 -0.015625 0.4375 -0.046875 C 0.320312 -0.0976562 0.234375 -0.179688 0.171875 -0.296875 C 0.117188 -0.410156 0.109375 -0.53125 0.140625 -0.65625 L 1.53125 -5.734375 C 1.539062 -5.804688 1.566406 -5.863281 1.609375 -5.90625 C 1.648438 -5.957031 1.6875 -5.992188 1.71875 -6.015625 C 1.800781 -6.085938 1.898438 -6.125 2.015625 -6.125 L 4.03125 -6.125 C 4.09375 -6.125 4.15625 -6.113281 4.21875 -6.09375 C 4.289062 -6.070312 4.351562 -6.03125 4.40625 -5.96875 C 4.457031 -5.90625 4.492188 -5.84375 4.515625 -5.78125 C 4.535156 -5.71875 4.550781 -5.664062 4.5625 -5.625 Z M 3.359375 -2.859375 C 3.398438 -2.859375 3.429688 -2.867188 3.453125 -2.890625 C 3.472656 -2.921875 3.476562 -2.957031 3.46875 -3 L 3.265625 -3.515625 L 3.109375 -3.921875 C 3.085938 -3.972656 3.050781 -4 3 -4 C 2.945312 -4 2.914062 -3.972656 2.90625 -3.921875 L 2.75 -3.515625 L 2.546875 -3 C 2.523438 -2.957031 2.523438 -2.921875 2.546875 -2.890625 C 2.578125 -2.867188 2.613281 -2.859375 2.65625 -2.859375 Z M 3.359375 -2.859375 "/></g></g></g><g fill="#ffa7e4" fill-opacity="1"><g transform="translate(25.870956, 27.912973)"><g><path d="M 6.09375 -5.53125 L 4.28125 -2.921875 L 4.28125 -0.4375 C 4.28125 -0.3125 4.222656 -0.207031 4.109375 -0.125 C 4.003906 -0.0390625 3.894531 0 3.78125 0 L 2.53125 0 C 2.414062 0 2.304688 -0.0390625 2.203125 -0.125 C 2.097656 -0.207031 2.046875 -0.3125 2.046875 -0.4375 L 2.046875 -2.921875 L 0.234375 -5.53125 C 0.160156 -5.582031 0.125 -5.660156 0.125 -5.765625 C 0.125 -5.890625 0.164062 -5.984375 0.25 -6.046875 C 0.332031 -6.117188 0.421875 -6.15625 0.515625 -6.15625 L 1.921875 -6.15625 C 1.953125 -6.15625 1.992188 -6.144531 2.046875 -6.125 C 2.109375 -6.113281 2.160156 -6.078125 2.203125 -6.015625 L 3.15625 -4.609375 L 4.171875 -6.015625 C 4.242188 -6.109375 4.320312 -6.15625 4.40625 -6.15625 L 5.796875 -6.15625 C 5.898438 -6.15625 5.988281 -6.117188 6.0625 -6.046875 C 6.144531 -5.984375 6.1875 -5.890625 6.1875 -5.765625 C 6.1875 -5.722656 6.175781 -5.675781 6.15625 -5.625 C 6.144531 -5.582031 6.125 -5.550781 6.09375 -5.53125 Z M 6.09375 -5.53125 "/></g></g></g><g fill="#ffa7e4" fill-opacity="1"><g transform="translate(32.18854, 27.912973)"><g><path d="M 2.640625 -6.25 C 2.960938 -6.25 3.269531 -6.1875 3.5625 -6.0625 C 3.863281 -5.945312 4.132812 -5.785156 4.375 -5.578125 C 4.613281 -5.367188 4.800781 -5.125 4.9375 -4.84375 C 5.070312 -4.570312 5.140625 -4.273438 5.140625 -3.953125 L 5.140625 -2.203125 C 5.140625 -1.878906 5.070312 -1.570312 4.9375 -1.28125 C 4.800781 -1 4.613281 -0.75 4.375 -0.53125 C 4.132812 -0.320312 3.863281 -0.160156 3.5625 -0.046875 C 3.269531 0.0664062 2.960938 0.125 2.640625 0.125 C 2.328125 0.125 2.019531 0.0664062 1.71875 -0.046875 C 1.414062 -0.160156 1.144531 -0.320312 0.90625 -0.53125 C 0.664062 -0.75 0.472656 -1 0.328125 -1.28125 C 0.191406 -1.570312 0.125 -1.878906 0.125 -2.203125 L 0.125 -3.953125 C 0.125 -4.273438 0.191406 -4.570312 0.328125 -4.84375 C 0.472656 -5.125 0.664062 -5.367188 0.90625 -5.578125 C 1.144531 -5.785156 1.414062 -5.945312 1.71875 -6.0625 C 2.019531 -6.1875 2.328125 -6.25 2.640625 -6.25 Z M 3.15625 -2.28125 L 3.15625 -3.828125 C 3.15625 -3.960938 3.101562 -4.078125 3 -4.171875 C 2.894531 -4.273438 2.773438 -4.328125 2.640625 -4.328125 C 2.492188 -4.328125 2.367188 -4.273438 2.265625 -4.171875 C 2.171875 -4.078125 2.125 -3.960938 2.125 -3.828125 L 2.125 -2.28125 C 2.125 -2.15625 2.171875 -2.039062 2.265625 -1.9375 C 2.367188 -1.84375 2.492188 -1.796875 2.640625 -1.796875 C 2.773438 -1.796875 2.894531 -1.84375 3 -1.9375 C 3.101562 -2.039062 3.15625 -2.15625 3.15625 -2.28125 Z M 3.15625 -2.28125 "/></g></g></g><g fill="#ffa7e4" fill-opacity="1"><g transform="translate(37.460876, 27.912973)"><g><path d="M 5.03125 -0.65625 C 5.070312 -0.476562 5.039062 -0.328125 4.9375 -0.203125 C 4.832031 -0.078125 4.707031 -0.015625 4.5625 -0.015625 L 3.3125 -0.015625 C 3.1875 -0.015625 3.050781 -0.0664062 2.90625 -0.171875 C 2.769531 -0.285156 2.679688 -0.429688 2.640625 -0.609375 L 2.4375 -1.546875 L 2.375 -1.859375 C 2.375 -1.890625 2.359375 -1.90625 2.328125 -1.90625 C 2.304688 -1.90625 2.296875 -1.890625 2.296875 -1.859375 L 2.296875 -0.5625 C 2.296875 -0.507812 2.289062 -0.457031 2.28125 -0.40625 C 2.269531 -0.351562 2.226562 -0.285156 2.15625 -0.203125 C 2.101562 -0.140625 2.039062 -0.09375 1.96875 -0.0625 C 1.90625 -0.03125 1.832031 -0.015625 1.75 -0.015625 L 0.765625 -0.015625 C 0.617188 -0.015625 0.492188 -0.0664062 0.390625 -0.171875 C 0.285156 -0.285156 0.234375 -0.410156 0.234375 -0.546875 L 0.234375 -5.453125 C 0.234375 -5.671875 0.285156 -5.835938 0.390625 -5.953125 C 0.492188 -6.078125 0.617188 -6.140625 0.765625 -6.140625 L 3.546875 -6.140625 C 3.828125 -6.140625 4.082031 -6.0625 4.3125 -5.90625 C 4.539062 -5.75 4.722656 -5.523438 4.859375 -5.234375 C 4.992188 -4.953125 5.0625 -4.617188 5.0625 -4.234375 C 5.0625 -3.898438 5.007812 -3.601562 4.90625 -3.34375 C 4.8125 -3.09375 4.675781 -2.867188 4.5 -2.671875 C 4.519531 -2.640625 4.539062 -2.585938 4.5625 -2.515625 Z M 2.984375 -4.03125 C 2.984375 -4.15625 2.9375 -4.257812 2.84375 -4.34375 C 2.757812 -4.4375 2.65625 -4.484375 2.53125 -4.484375 L 2.390625 -4.484375 C 2.328125 -4.484375 2.296875 -4.453125 2.296875 -4.390625 L 2.296875 -3.5625 C 2.296875 -3.5 2.328125 -3.46875 2.390625 -3.46875 L 2.53125 -3.46875 C 2.65625 -3.46875 2.757812 -3.507812 2.84375 -3.59375 C 2.9375 -3.6875 2.984375 -3.796875 2.984375 -3.921875 Z M 2.984375 -4.03125 "/></g></g></g><g fill="#ffa7e4" fill-opacity="1"><g transform="translate(42.771637, 27.912973)"><g><path d="M 0.796875 0 C 0.648438 0 0.519531 -0.0507812 0.40625 -0.15625 C 0.300781 -0.269531 0.25 -0.398438 0.25 -0.546875 L 0.25 -5.59375 C 0.25 -5.757812 0.300781 -5.894531 0.40625 -6 C 0.519531 -6.101562 0.648438 -6.15625 0.796875 -6.15625 L 1.75 -6.15625 C 1.914062 -6.15625 2.050781 -6.101562 2.15625 -6 C 2.257812 -5.894531 2.3125 -5.757812 2.3125 -5.59375 L 2.3125 -0.546875 C 2.3125 -0.398438 2.257812 -0.269531 2.15625 -0.15625 C 2.050781 -0.0507812 1.914062 0 1.75 0 Z M 0.796875 0 "/></g></g></g><g fill="#ffa7e4" fill-opacity="1"><g transform="translate(45.330952, 27.912973)"><g><path d="M 2.6875 -6.421875 C 3.082031 -6.421875 3.414062 -6.378906 3.6875 -6.296875 C 3.96875 -6.210938 4.195312 -6.101562 4.375 -5.96875 C 4.550781 -5.832031 4.691406 -5.6875 4.796875 -5.53125 C 4.898438 -5.375 4.972656 -5.222656 5.015625 -5.078125 C 5.066406 -4.941406 5.101562 -4.835938 5.125 -4.765625 C 5.132812 -4.703125 5.125 -4.648438 5.09375 -4.609375 C 5.070312 -4.578125 5.039062 -4.554688 5 -4.546875 L 3.109375 -4.296875 C 3.023438 -4.296875 2.96875 -4.335938 2.9375 -4.421875 C 2.90625 -4.523438 2.84375 -4.597656 2.75 -4.640625 C 2.664062 -4.691406 2.59375 -4.71875 2.53125 -4.71875 C 2.445312 -4.71875 2.351562 -4.679688 2.25 -4.609375 C 2.15625 -4.546875 2.109375 -4.441406 2.109375 -4.296875 C 2.109375 -4.171875 2.140625 -4.078125 2.203125 -4.015625 C 2.273438 -3.953125 2.359375 -3.910156 2.453125 -3.890625 C 2.546875 -3.878906 2.625 -3.875 2.6875 -3.875 C 2.820312 -3.875 2.988281 -3.867188 3.1875 -3.859375 C 3.394531 -3.859375 3.613281 -3.832031 3.84375 -3.78125 C 4.070312 -3.738281 4.285156 -3.648438 4.484375 -3.515625 C 4.691406 -3.390625 4.859375 -3.195312 4.984375 -2.9375 C 5.109375 -2.6875 5.171875 -2.351562 5.171875 -1.9375 C 5.171875 -1.519531 5.101562 -1.164062 4.96875 -0.875 C 4.832031 -0.59375 4.65625 -0.367188 4.4375 -0.203125 C 4.21875 -0.0351562 3.976562 0.0820312 3.71875 0.15625 C 3.46875 0.238281 3.222656 0.28125 2.984375 0.28125 C 2.503906 0.28125 2.101562 0.234375 1.78125 0.140625 C 1.457031 0.046875 1.191406 -0.0820312 0.984375 -0.25 C 0.773438 -0.414062 0.609375 -0.597656 0.484375 -0.796875 C 0.359375 -1.003906 0.257812 -1.21875 0.1875 -1.4375 C 0.113281 -1.5625 0.140625 -1.632812 0.265625 -1.65625 L 2.328125 -1.90625 C 2.378906 -1.914062 2.414062 -1.910156 2.4375 -1.890625 C 2.457031 -1.878906 2.472656 -1.859375 2.484375 -1.828125 C 2.523438 -1.671875 2.585938 -1.570312 2.671875 -1.53125 C 2.765625 -1.5 2.835938 -1.484375 2.890625 -1.484375 C 3.003906 -1.484375 3.101562 -1.519531 3.1875 -1.59375 C 3.28125 -1.675781 3.328125 -1.78125 3.328125 -1.90625 C 3.328125 -2.03125 3.28125 -2.128906 3.1875 -2.203125 C 3.09375 -2.273438 2.984375 -2.3125 2.859375 -2.3125 L 2.40625 -2.3125 C 1.96875 -2.3125 1.578125 -2.394531 1.234375 -2.5625 C 0.890625 -2.726562 0.617188 -2.96875 0.421875 -3.28125 C 0.222656 -3.59375 0.125 -3.972656 0.125 -4.421875 C 0.125 -4.773438 0.179688 -5.070312 0.296875 -5.3125 C 0.421875 -5.550781 0.578125 -5.742188 0.765625 -5.890625 C 0.953125 -6.035156 1.15625 -6.144531 1.375 -6.21875 C 1.59375 -6.300781 1.796875 -6.351562 1.984375 -6.375 C 2.179688 -6.40625 2.34375 -6.421875 2.46875 -6.421875 C 2.601562 -6.421875 2.675781 -6.421875 2.6875 -6.421875 Z M 2.6875 -6.421875 "/></g></g></g><g fill="#ffa7e4" fill-opacity="1"><g transform="translate(50.634032, 27.912973)"><g><path d="M 5.15625 -6.15625 C 5.300781 -6.15625 5.425781 -6.097656 5.53125 -5.984375 C 5.632812 -5.878906 5.6875 -5.753906 5.6875 -5.609375 L 5.6875 -4.5625 C 5.6875 -4.414062 5.632812 -4.285156 5.53125 -4.171875 C 5.425781 -4.066406 5.300781 -4.015625 5.15625 -4.015625 L 4.09375 -4.015625 C 4.050781 -4.015625 4.03125 -4 4.03125 -3.96875 L 4.03125 -0.515625 C 4.03125 -0.378906 3.976562 -0.253906 3.875 -0.140625 C 3.769531 -0.0351562 3.644531 0.015625 3.5 0.015625 L 2.453125 0.015625 C 2.296875 0.015625 2.164062 -0.0351562 2.0625 -0.140625 C 1.957031 -0.253906 1.90625 -0.378906 1.90625 -0.515625 L 1.90625 -3.96875 C 1.90625 -4 1.890625 -4.015625 1.859375 -4.015625 L 0.796875 -4.015625 C 0.648438 -4.015625 0.519531 -4.066406 0.40625 -4.171875 C 0.300781 -4.285156 0.25 -4.414062 0.25 -4.5625 L 0.25 -5.609375 C 0.25 -5.753906 0.300781 -5.878906 0.40625 -5.984375 C 0.519531 -6.097656 0.648438 -6.15625 0.796875 -6.15625 Z M 5.15625 -6.15625 "/></g></g></g><g fill="#ffa7e4" fill-opacity="1"><g transform="translate(56.575016, 27.912973)"><g><path d="M 5.859375 -0.640625 C 5.890625 -0.535156 5.878906 -0.425781 5.828125 -0.3125 C 5.785156 -0.195312 5.710938 -0.113281 5.609375 -0.0625 C 5.546875 -0.0195312 5.46875 0 5.375 0 L 4.328125 0 C 4.191406 0 4.085938 -0.0390625 4.015625 -0.125 C 3.941406 -0.21875 3.878906 -0.335938 3.828125 -0.484375 L 3.59375 -1.078125 L 2.40625 -1.078125 L 2.1875 -0.484375 C 2.132812 -0.335938 2.070312 -0.21875 2 -0.125 C 1.925781 -0.0390625 1.816406 0 1.671875 0 L 0.625 0 C 0.539062 0 0.476562 -0.015625 0.4375 -0.046875 C 0.320312 -0.0976562 0.234375 -0.179688 0.171875 -0.296875 C 0.117188 -0.410156 0.109375 -0.53125 0.140625 -0.65625 L 1.53125 -5.734375 C 1.539062 -5.804688 1.566406 -5.863281 1.609375 -5.90625 C 1.648438 -5.957031 1.6875 -5.992188 1.71875 -6.015625 C 1.800781 -6.085938 1.898438 -6.125 2.015625 -6.125 L 4.03125 -6.125 C 4.09375 -6.125 4.15625 -6.113281 4.21875 -6.09375 C 4.289062 -6.070312 4.351562 -6.03125 4.40625 -5.96875 C 4.457031 -5.90625 4.492188 -5.84375 4.515625 -5.78125 C 4.535156 -5.71875 4.550781 -5.664062 4.5625 -5.625 Z M 3.359375 -2.859375 C 3.398438 -2.859375 3.429688 -2.867188 3.453125 -2.890625 C 3.472656 -2.921875 3.476562 -2.957031 3.46875 -3 L 3.265625 -3.515625 L 3.109375 -3.921875 C 3.085938 -3.972656 3.050781 -4 3 -4 C 2.945312 -4 2.914062 -3.972656 2.90625 -3.921875 L 2.75 -3.515625 L 2.546875 -3 C 2.523438 -2.957031 2.523438 -2.921875 2.546875 -2.890625 C 2.578125 -2.867188 2.613281 -2.859375 2.65625 -2.859375 Z M 3.359375 -2.859375 "/></g></g></g><path stroke-linecap="butt" transform="matrix(0.640464, 0, 0, 0.640464, 11.631647, 21.956806)" fill="none" stroke-linejoin="miter" d="M 13.053881 8.173138 C 13.053881 8.392706 12.974593 8.587877 12.816017 8.752552 C 12.65744 8.917228 12.462269 9.002615 12.230504 9.002615 L 10.632541 9.002615 C 10.431271 8.990417 10.260496 8.923327 10.114118 8.795246 C 9.973839 8.667165 9.882353 8.508588 9.839659 8.319516 L 9.266344 4.92842 L 9.205353 4.702754 L 9.180957 4.824736 L 8.711327 8.264625 C 8.68693 8.465895 8.601543 8.642768 8.442966 8.789147 C 8.28439 8.929426 8.107516 9.002615 7.900147 9.002615 L 6.168004 9.002615 C 5.960635 9.002615 5.777662 8.929426 5.625185 8.789147 C 5.466609 8.642768 5.381221 8.465895 5.369023 8.264625 L 4.8506 4.586871 L 4.789609 4.92842 L 4.185799 8.319516 C 4.155303 8.508588 4.069916 8.667165 3.923538 8.795246 C 3.783259 8.923327 3.606385 8.990417 3.411214 9.002615 L 1.801053 9.002615 C 1.575387 9.002615 1.386315 8.917228 1.221639 8.752552 C 1.063063 8.587877 0.983775 8.392706 0.983775 8.173138 C 0.983775 8.154841 0.983775 8.136544 0.983775 8.112147 C 0.983775 8.087751 0.989874 8.063355 0.995973 8.02676 L 1.154549 7.044806 L 1.679071 3.897673 L 2.270683 0.311406 C 2.313377 0.0552443 2.435359 -0.158224 2.63053 -0.3168 C 2.8318 -0.481476 3.063566 -0.566863 3.325827 -0.566863 L 5.399519 -0.566863 C 5.680077 -0.554665 5.924041 -0.463179 6.125311 -0.280206 C 6.33268 -0.103332 6.448563 0.122334 6.485157 0.384595 L 6.80231 3.129188 L 6.80231 3.123088 C 6.80231 3.17798 6.826707 3.226773 6.8694 3.269467 C 6.912094 3.318259 6.966986 3.336557 7.021878 3.336557 C 7.13776 3.336557 7.21095 3.275566 7.229247 3.153584 L 7.704976 0.311406 C 7.74767 0.0552443 7.863553 -0.158224 8.064823 -0.3168 C 8.266093 -0.481476 8.497858 -0.566863 8.760119 -0.566863 L 10.833811 -0.566863 C 11.108271 -0.554665 11.346135 -0.463179 11.547405 -0.286305 C 11.748675 -0.109431 11.870657 0.104037 11.91945 0.360199 C 12.108522 1.653207 12.267098 2.751044 12.395179 3.641511 C 12.52326 4.531979 12.626945 5.26387 12.712332 5.824987 C 12.79772 6.392203 12.86481 6.831338 12.913602 7.14849 C 12.962395 7.459544 12.99899 7.69131 13.017287 7.831589 C 13.035584 7.971868 13.047782 8.057255 13.047782 8.09385 C 13.053881 8.130445 13.053881 8.154841 13.053881 8.173138 Z M 22.415991 7.990165 C 22.458684 8.167039 22.440387 8.343913 22.367198 8.514687 C 22.300108 8.685462 22.184225 8.813543 22.019549 8.905029 C 21.915865 8.96602 21.799982 9.002615 21.659703 9.002615 L 20.031245 9.002615 C 19.805578 9.002615 19.634804 8.935525 19.52502 8.795246 C 19.415236 8.661066 19.311552 8.478093 19.226164 8.258526 L 18.866318 7.319265 L 17.030491 7.319265 L 16.682842 8.258526 C 16.591356 8.478093 16.49377 8.661066 16.383987 8.789147 C 16.268104 8.923327 16.103428 8.990417 15.877762 8.990417 L 14.243205 8.990417 C 14.115124 8.990417 14.011439 8.96602 13.932151 8.929426 C 13.755277 8.844039 13.627196 8.715958 13.541809 8.539084 C 13.456422 8.356111 13.438124 8.173138 13.486917 7.977967 L 15.645996 0.0491452 C 15.670393 -0.0667376 15.713086 -0.158224 15.774077 -0.231413 C 15.835068 -0.298503 15.896059 -0.359494 15.950951 -0.396089 C 16.079032 -0.499773 16.231509 -0.548566 16.414482 -0.548566 L 19.561615 -0.548566 C 19.647002 -0.548566 19.744587 -0.536368 19.848272 -0.505872 C 19.951957 -0.475377 20.049542 -0.414386 20.134929 -0.3229 C 20.226416 -0.225314 20.281308 -0.127729 20.311803 -0.0301431 C 20.342299 0.0674424 20.360596 0.158929 20.378893 0.226019 Z M 18.51867 4.544177 C 18.573561 4.544177 18.616255 4.52588 18.646751 4.477087 C 18.677246 4.428295 18.689444 4.373403 18.671147 4.318511 L 18.360093 3.501232 L 18.11003 2.879125 C 18.085634 2.799837 18.030742 2.757143 17.951454 2.757143 C 17.872166 2.757143 17.823373 2.799837 17.798976 2.879125 L 17.555013 3.501232 L 17.243959 4.318511 C 17.213463 4.373403 17.213463 4.428295 17.256157 4.477087 C 17.292752 4.52588 17.341544 4.544177 17.402535 4.544177 Z M 32.162343 0.360199 L 29.314066 4.428295 L 29.314066 8.319516 C 29.314066 8.514687 29.234778 8.679363 29.070102 8.807444 C 28.905426 8.935525 28.734652 9.002615 28.551679 9.002615 L 26.606068 9.002615 C 26.423095 9.002615 26.246222 8.935525 26.087645 8.807444 C 25.929069 8.679363 25.84978 8.514687 25.84978 8.319516 L 25.84978 4.428295 L 23.007603 0.360199 C 22.903918 0.28701 22.849026 0.165028 22.849026 -0.0118458 C 22.849026 -0.194819 22.910017 -0.341197 23.038098 -0.450981 C 23.16008 -0.554665 23.300359 -0.609557 23.446737 -0.609557 L 25.636312 -0.609557 C 25.697303 -0.609557 25.776591 -0.597359 25.861979 -0.566863 C 25.947366 -0.542467 26.020555 -0.481476 26.075447 -0.383891 L 27.575824 1.799585 L 29.161588 -0.383891 C 29.265273 -0.536368 29.387255 -0.609557 29.533633 -0.609557 L 31.704911 -0.609557 C 31.863487 -0.609557 32.003766 -0.554665 32.125748 -0.450981 C 32.241631 -0.341197 32.302622 -0.194819 32.302622 -0.0118458 C 32.302622 0.0674424 32.290424 0.140632 32.266027 0.213821 C 32.235532 0.280911 32.205036 0.329703 32.162343 0.360199 Z M 36.626879 -0.743737 C 37.127005 -0.743737 37.614933 -0.652251 38.084563 -0.469278 C 38.548094 -0.286305 38.968931 -0.0301431 39.334877 0.293109 C 39.706922 0.616361 39.999678 0.994505 40.213147 1.42754 C 40.426615 1.860576 40.536399 2.324107 40.536399 2.824233 L 40.536399 5.556627 C 40.536399 6.068951 40.426615 6.54468 40.213147 6.989914 C 39.999678 7.435148 39.706922 7.819391 39.334877 8.154841 C 38.968931 8.484192 38.548094 8.746453 38.084563 8.929426 C 37.614933 9.112399 37.127005 9.203885 36.626879 9.203885 C 36.138952 9.203885 35.657123 9.112399 35.187493 8.929426 C 34.723962 8.746453 34.303125 8.484192 33.93108 8.154841 C 33.559035 7.819391 33.266279 7.435148 33.040612 6.989914 C 32.821045 6.54468 32.71736 6.068951 32.71736 5.556627 L 32.71736 2.824233 C 32.71736 2.324107 32.821045 1.860576 33.040612 1.42754 C 33.266279 0.994505 33.559035 0.616361 33.93108 0.293109 C 34.303125 -0.0301431 34.723962 -0.286305 35.187493 -0.469278 C 35.657123 -0.652251 36.138952 -0.743737 36.626879 -0.743737 Z M 37.425861 5.434645 L 37.425861 3.037701 C 37.425861 2.818134 37.346572 2.635161 37.187996 2.476585 C 37.02942 2.324107 36.840348 2.244819 36.626879 2.244819 C 36.401213 2.244819 36.212141 2.324107 36.059664 2.476585 C 35.907186 2.635161 35.833997 2.818134 35.833997 3.037701 L 35.833997 5.434645 C 35.833997 5.635915 35.907186 5.812789 36.059664 5.971365 C 36.212141 6.129942 36.401213 6.203131 36.626879 6.203131 C 36.840348 6.203131 37.02942 6.129942 37.187996 5.971365 C 37.346572 5.812789 37.425861 5.635915 37.425861 5.434645 Z M 48.599401 7.977967 C 48.666491 8.258526 48.617698 8.49639 48.453022 8.685462 C 48.288347 8.868435 48.093176 8.96602 47.855311 8.96602 L 45.9097 8.96602 C 45.714529 8.96602 45.501061 8.880633 45.281494 8.709858 C 45.061926 8.545183 44.921647 8.325616 44.860656 8.051156 L 44.543503 6.587374 L 44.452017 6.099446 C 44.452017 6.056753 44.42762 6.032356 44.378828 6.032356 C 44.336134 6.032356 44.317837 6.056753 44.317837 6.105545 L 44.317837 8.112147 C 44.317837 8.209733 44.311738 8.29512 44.299539 8.374408 C 44.287341 8.453697 44.22635 8.557381 44.116567 8.673264 C 44.031179 8.770849 43.939693 8.844039 43.82381 8.892831 C 43.714026 8.941624 43.598144 8.96602 43.476162 8.96602 L 41.945289 8.96602 C 41.707425 8.96602 41.512254 8.880633 41.347578 8.715958 C 41.182902 8.557381 41.103614 8.36221 41.103614 8.136544 L 41.103614 0.494379 C 41.103614 0.146731 41.182902 -0.11553 41.347578 -0.298503 C 41.512254 -0.481476 41.707425 -0.579062 41.945289 -0.579062 L 46.275646 -0.59126 C 46.714781 -0.59126 47.111222 -0.469278 47.471068 -0.225314 C 47.824816 0.0186497 48.105374 0.366298 48.318842 0.811532 C 48.532311 1.256766 48.635995 1.781288 48.635995 2.397296 C 48.635995 2.921818 48.556707 3.37925 48.40423 3.775692 C 48.245653 4.172133 48.038284 4.52588 47.769924 4.836934 C 47.806518 4.885727 47.837014 4.958916 47.855311 5.0626 Z M 45.409575 2.714449 C 45.409575 2.513179 45.336385 2.342404 45.196106 2.202125 C 45.061926 2.061846 44.891152 1.994756 44.70208 1.994756 L 44.476413 1.994756 C 44.372729 1.994756 44.317837 2.043549 44.317837 2.147233 L 44.317837 3.428043 C 44.317837 3.537827 44.372729 3.58662 44.476413 3.58662 L 44.70208 3.58662 C 44.891152 3.58662 45.061926 3.51953 45.196106 3.37925 C 45.336385 3.238971 45.409575 3.074296 45.409575 2.879125 Z M 50.282751 9.008714 C 50.050985 9.008714 49.849715 8.923327 49.67894 8.746453 C 49.514265 8.569579 49.428877 8.374408 49.428877 8.148742 L 49.428877 0.262613 C 49.428877 0.0064515 49.514265 -0.200918 49.67894 -0.359494 C 49.849715 -0.518071 50.050985 -0.603458 50.282751 -0.603458 L 51.770929 -0.603458 C 52.027091 -0.603458 52.234461 -0.518071 52.393037 -0.359494 C 52.551613 -0.200918 52.637001 0.0064515 52.637001 0.262613 L 52.637001 8.148742 C 52.637001 8.374408 52.551613 8.569579 52.393037 8.746453 C 52.234461 8.923327 52.027091 9.008714 51.770929 9.008714 Z M 57.229618 -1.030394 C 57.845627 -1.030394 58.370149 -0.963304 58.797086 -0.829124 C 59.224022 -0.688845 59.57777 -0.518071 59.858328 -0.304602 C 60.138886 -0.091134 60.358454 0.134532 60.51703 0.372397 C 60.675607 0.610262 60.797588 0.842027 60.870778 1.055496 C 60.950066 1.275063 60.998858 1.445838 61.023255 1.573919 C 61.035453 1.659306 61.023255 1.732495 60.98666 1.793486 C 60.943967 1.854477 60.895174 1.884972 60.828084 1.897171 L 57.888321 2.299711 C 57.754141 2.299711 57.662654 2.232621 57.613861 2.098441 C 57.55897 1.939864 57.461384 1.823981 57.327204 1.744693 C 57.186925 1.671504 57.077141 1.62881 56.979556 1.62881 C 56.851475 1.62881 56.705096 1.683702 56.552619 1.793486 C 56.394043 1.90327 56.314754 2.074044 56.314754 2.299711 C 56.314754 2.494882 56.369646 2.64126 56.47943 2.732746 C 56.589214 2.824233 56.711195 2.885224 56.857574 2.90962 C 56.997853 2.940116 57.125934 2.952314 57.229618 2.952314 C 57.430889 2.952314 57.687051 2.952314 58.010302 2.958413 C 58.327455 2.964512 58.669005 3.001107 59.022752 3.080395 C 59.3765 3.153584 59.718049 3.293863 60.029103 3.495133 C 60.346255 3.702502 60.608516 4.001358 60.803687 4.397799 C 61.004958 4.79424 61.108642 5.318762 61.108642 5.965266 C 61.108642 6.623968 60.998858 7.172887 60.78539 7.618121 C 60.578021 8.069454 60.297463 8.423201 59.955913 8.691561 C 59.620463 8.953822 59.248419 9.142894 58.845878 9.258777 C 58.449437 9.37466 58.059095 9.429552 57.687051 9.429552 C 56.930763 9.429552 56.302556 9.356362 55.802431 9.209984 C 55.296206 9.063606 54.881467 8.862336 54.558215 8.606174 C 54.234963 8.350012 53.978801 8.063355 53.78363 7.740103 C 53.594559 7.42295 53.435982 7.0875 53.314 6.74595 C 53.210316 6.562977 53.253009 6.447095 53.435982 6.404401 L 56.656304 6.026257 C 56.741691 6.00796 56.802682 6.014059 56.839276 6.038455 C 56.875871 6.062852 56.900267 6.099446 56.918565 6.14214 C 56.979556 6.386104 57.077141 6.532482 57.211321 6.593473 C 57.345501 6.654464 57.455285 6.684959 57.55287 6.684959 C 57.723645 6.684959 57.870023 6.623968 58.004203 6.495887 C 58.144483 6.373906 58.211573 6.215329 58.211573 6.026257 C 58.211573 5.824987 58.144483 5.666411 58.004203 5.556627 C 57.863924 5.446843 57.69315 5.385852 57.49188 5.385852 L 56.772186 5.385852 C 56.101286 5.385852 55.497476 5.257771 54.960756 5.001609 C 54.424035 4.745447 54.003198 4.373403 53.692144 3.879376 C 53.387189 3.391449 53.234712 2.793737 53.234712 2.098441 C 53.234712 1.537324 53.326198 1.073793 53.509171 0.701748 C 53.692144 0.329703 53.930009 0.0308479 54.228864 -0.194819 C 54.52772 -0.426584 54.838774 -0.597359 55.174224 -0.719341 C 55.515773 -0.841323 55.832926 -0.920611 56.137881 -0.957205 C 56.442835 -0.999899 56.692898 -1.024295 56.894168 -1.024295 C 57.095438 -1.030394 57.205222 -1.030394 57.229618 -1.030394 Z M 69.348518 -0.603458 C 69.580284 -0.603458 69.781554 -0.518071 69.946229 -0.353395 C 70.104806 -0.18872 70.190193 0.0064515 70.190193 0.238217 L 70.190193 1.884972 C 70.190193 2.110639 70.104806 2.30581 69.946229 2.470485 C 69.781554 2.64126 69.580284 2.726647 69.348518 2.726647 L 67.707862 2.726647 C 67.640772 2.726647 67.610276 2.751044 67.610276 2.805936 L 67.610276 8.185336 C 67.610276 8.404904 67.524889 8.606174 67.360213 8.770849 C 67.195538 8.941624 67.000367 9.020912 66.768601 9.020912 L 65.140143 9.020912 C 64.896179 9.020912 64.694909 8.941624 64.530234 8.770849 C 64.365558 8.606174 64.28627 8.404904 64.28627 8.185336 L 64.28627 2.805936 C 64.28627 2.751044 64.255775 2.726647 64.200883 2.726647 L 62.548028 2.726647 C 62.322362 2.726647 62.127191 2.64126 61.956416 2.470485 C 61.791741 2.30581 61.706353 2.110639 61.706353 1.884972 L 61.706353 0.238217 C 61.706353 0.0064515 61.791741 -0.18872 61.956416 -0.353395 C 62.127191 -0.518071 62.322362 -0.603458 62.548028 -0.603458 Z M 79.741374 7.990165 C 79.784068 8.167039 79.76577 8.343913 79.692581 8.514687 C 79.619392 8.685462 79.503509 8.813543 79.344933 8.905029 C 79.241248 8.96602 79.119266 9.002615 78.985086 9.002615 L 77.350529 9.002615 C 77.130962 9.002615 76.960187 8.935525 76.850404 8.795246 C 76.74062 8.661066 76.636935 8.478093 76.551548 8.258526 L 76.191701 7.319265 L 74.355874 7.319265 L 74.002127 8.258526 C 73.916739 8.478093 73.819154 8.661066 73.703271 8.789147 C 73.593487 8.923327 73.428812 8.990417 73.203145 8.990417 L 71.568588 8.990417 C 71.440507 8.990417 71.336823 8.96602 71.257534 8.929426 C 71.080661 8.844039 70.95258 8.715958 70.867192 8.539084 C 70.781805 8.356111 70.763508 8.173138 70.812301 7.977967 L 72.97138 0.0491452 C 72.995776 -0.0667376 73.03847 -0.158224 73.099461 -0.231413 C 73.160452 -0.298503 73.221443 -0.359494 73.276334 -0.396089 C 73.404415 -0.499773 73.556893 -0.548566 73.739866 -0.548566 L 76.886998 -0.548566 C 76.972385 -0.548566 77.069971 -0.536368 77.173655 -0.505872 C 77.27734 -0.475377 77.374926 -0.414386 77.460313 -0.3229 C 77.551799 -0.225314 77.606691 -0.127729 77.637187 -0.0301431 C 77.661583 0.0674424 77.685979 0.158929 77.704277 0.226019 Z M 75.844053 4.544177 C 75.898945 4.544177 75.941639 4.52588 75.972134 4.477087 C 76.002629 4.428295 76.014828 4.373403 75.99653 4.318511 L 75.685477 3.501232 L 75.435414 2.879125 C 75.411017 2.799837 75.356125 2.757143 75.276837 2.757143 C 75.197549 2.757143 75.148756 2.799837 75.118261 2.879125 L 74.880396 3.501232 L 74.569342 4.318511 C 74.538847 4.373403 74.538847 4.428295 74.581541 4.477087 C 74.618135 4.52588 74.666928 4.544177 74.727919 4.544177 Z M 75.844053 4.544177 " stroke="#ff66c4" stroke-width="0.195" stroke-opacity="1" stroke-miterlimit="4"/><g fill="#5ce1e6" fill-opacity="1"><g transform="translate(35.963144, 20.735851)"><g><path d="M 1.421875 -8.265625 C 1.554688 -8.265625 1.671875 -8.304688 1.765625 -8.390625 C 1.859375 -8.484375 1.90625 -8.585938 1.90625 -8.703125 L 1.90625 -10.421875 C 1.90625 -10.546875 1.859375 -10.65625 1.765625 -10.75 C 1.671875 -10.84375 1.554688 -10.890625 1.421875 -10.890625 L 0.703125 -10.890625 C 0.566406 -10.890625 0.453125 -10.84375 0.359375 -10.75 C 0.273438 -10.65625 0.234375 -10.546875 0.234375 -10.421875 L 0.234375 -8.703125 C 0.234375 -8.585938 0.273438 -8.484375 0.359375 -8.390625 C 0.453125 -8.304688 0.566406 -8.265625 0.703125 -8.265625 Z M 1.421875 -8.265625 "/></g></g></g><path stroke-linecap="butt" transform="matrix(0.0709979, 0, 0, 0.0709979, 11.631647, 9.533275)" fill="none" stroke-linejoin="miter" d="M 369.41573 36.669328 C 371.176346 36.669328 372.771905 36.064116 374.092367 34.743653 C 375.412829 33.47821 376.12808 32.04771 376.12808 30.397132 L 376.12808 6.188658 C 376.12808 4.428042 375.412829 2.887502 374.092367 1.622059 C 372.771905 0.301597 371.176346 -0.303615 369.41573 -0.303615 L 359.237167 -0.303615 C 357.366512 -0.303615 355.770954 0.301597 354.505511 1.622059 C 353.185048 2.887502 352.579837 4.428042 352.579837 6.188658 L 352.579837 30.397132 C 352.579837 32.04771 353.185048 33.47821 354.505511 34.743653 C 355.770954 36.064116 357.366512 36.669328 359.237167 36.669328 Z M 369.41573 36.669328 " stroke="#b2edef" stroke-width="3.114264" stroke-opacity="1" stroke-miterlimit="4"/></svg>